<?xml version="1.0" standalone="no"?>
<!DOCTYPE svg PUBLIC "-//W3C//DTD SVG 20010904//EN"
 "http://www.w3.org/TR/2001/REC-SVG-20010904/DTD/svg10.dtd">
<svg version="1.0" xmlns="http://www.w3.org/2000/svg"
 width="5000.000000pt" height="3333.000000pt" viewBox="0 0 5000.000000 3333.000000"
 preserveAspectRatio="xMidYMid meet">

<g transform="translate(0.000000,3333.000000) scale(0.100000,-0.100000)"
fill="#000000" stroke="none">
<path d="M0 16665 l0 -16665 25000 0 25000 0 0 16665 0 16665 -25000 0 -25000
0 0 -16665z m13700 11430 l0 -36 -57 3 c-57 3 -58 3 -61 36 l-3 32 60 0 61 0
0 -35z m80 0 c0 -32 -2 -35 -30 -35 -28 0 -30 3 -30 35 0 32 2 35 30 35 28 0
30 -3 30 -35z m40 -6 c0 -16 -4 -29 -10 -29 -5 0 -10 16 -10 36 0 21 4 33 10
29 6 -3 10 -19 10 -36z m37 -16 c-3 -10 -5 -2 -5 17 0 19 2 27 5 18 2 -10 2
-26 0 -35z m80 0 c-3 -10 -5 -2 -5 17 0 19 2 27 5 18 2 -10 2 -26 0 -35z m140
-5 c-2 -13 -4 -5 -4 17 -1 22 1 32 4 23 2 -10 2 -28 0 -40z m123 11 c0 -27 -3
-29 -40 -29 -37 0 -40 2 -40 28 0 37 3 39 45 34 31 -4 35 -7 35 -33z m-203 -6
c-3 -10 -5 -4 -5 12 0 17 2 24 5 18 2 -7 2 -21 0 -30z m303 1 c0 -33 -2 -35
-27 -32 -23 2 -29 8 -31 36 -3 30 -1 32 27 32 29 0 31 -3 31 -36z m70 -4 c0
-23 -4 -30 -20 -30 -14 0 -20 7 -20 23 0 27 7 37 27 37 8 0 13 -12 13 -30z
m62 -10 c-2 -16 -9 -30 -14 -30 -6 0 -8 10 -4 23 3 12 6 28 6 35 0 7 4 11 8 8
5 -3 7 -19 4 -36z m-525 8 c-3 -8 -6 -5 -6 6 -1 11 2 17 5 13 3 -3 4 -12 1
-19z m573 -8 c0 -16 -4 -30 -10 -30 -5 0 -10 14 -10 30 0 17 5 30 10 30 6 0
10 -13 10 -30z m27 -17 c-3 -10 -5 -2 -5 17 0 19 2 27 5 18 2 -10 2 -26 0 -35z
m39 -21 c-13 -12 -17 8 -10 40 l9 33 3 -33 c2 -19 1 -36 -2 -40z m44 41 c0
-10 -5 -25 -10 -33 -7 -11 -10 -7 -10 18 0 17 5 32 10 32 6 0 10 -8 10 -17z
m67 -35 c-2 -13 -4 -5 -4 17 -1 22 1 32 4 23 2 -10 2 -28 0 -40z m-40 5 c-3
-10 -5 -4 -5 12 0 17 2 24 5 18 2 -7 2 -21 0 -30z m79 -21 c-11 -10 -14 3 -8
33 l7 30 3 -28 c2 -16 1 -31 -2 -35z m121 -4 c-3 -8 -6 -5 -6 6 -1 11 2 17 5
13 3 -3 4 -12 1 -19z m3776 -1059 c78 -39 143 -73 145 -74 2 -2 -4 -17 -13
-34 l-16 -31 -147 76 c-81 43 -149 79 -151 81 -8 6 18 53 29 53 6 0 74 -32
153 -71z m267 -138 c36 -18 67 -35 69 -37 2 -2 -2 -17 -9 -33 l-12 -30 -79 40
-79 39 15 31 c9 17 19 29 23 27 4 -2 36 -18 72 -37z m155 -85 c17 -12 18 -18
7 -40 -13 -28 -23 -31 -52 -16 -18 10 -18 12 -2 40 19 34 21 35 47 16z m108
-62 c12 -12 -22 -64 -38 -58 -13 5 -13 10 1 35 14 29 25 35 37 23z m67 -45 c0
-20 -21 -49 -35 -49 -18 0 -18 2 -3 35 11 25 38 35 38 14z m67 -36 c5 -15 -32
-57 -45 -49 -7 4 -6 16 6 36 17 29 32 34 39 13z m66 -29 c7 -8 -23 -64 -35
-64 -16 0 -18 21 -2 45 17 25 26 30 37 19z m157 -103 c-1 -16 -39 -53 -49 -47
-16 10 18 66 36 59 7 -3 13 -8 13 -12z m-6110 -42 c0 -19 -5 -29 -15 -29 -15
0 -22 50 -9 63 12 12 24 -4 24 -34z m100 6 c0 -24 -5 -35 -15 -35 -10 0 -15
11 -15 35 0 24 5 35 15 35 10 0 15 -11 15 -35z m90 5 c0 -20 -5 -30 -15 -30
-10 0 -15 10 -15 30 0 20 5 30 15 30 10 0 15 -10 15 -30z m100 0 c0 -20 -5
-30 -15 -30 -10 0 -15 10 -15 30 0 20 5 30 15 30 10 0 15 -10 15 -30z m90 -5
c0 -24 -5 -35 -15 -35 -10 0 -15 11 -15 35 0 24 5 35 15 35 10 0 15 -11 15
-35z m-665 -15 c2 -25 -2 -30 -22 -30 -19 0 -23 5 -23 29 0 20 6 31 18 33 23
6 25 3 27 -32z m115 10 c0 -25 -4 -30 -25 -30 -21 0 -25 5 -25 30 0 25 4 30
25 30 21 0 25 -5 25 -30z m80 0 c0 -20 -5 -30 -15 -30 -10 0 -15 10 -15 30 0
20 5 30 15 30 10 0 15 -10 15 -30z m646 4 c-7 -39 -16 -42 -16 -6 0 18 5 32
10 32 6 0 8 -12 6 -26z m130 -32 c-12 -11 -17 7 -9 34 l8 29 3 -28 c2 -16 1
-31 -2 -35z m-1126 8 c0 -26 -4 -28 -42 -32 -24 -3 -44 -4 -45 -4 0 1 -3 15
-6 33 -5 31 -4 32 36 35 54 4 57 2 57 -32z m1262 10 c-2 -16 -6 -30 -8 -30 -2
0 -4 14 -4 30 0 17 4 30 8 30 5 0 7 -13 4 -30z m129 -21 l-10 -24 0 26 c-1 14
2 29 6 33 12 12 14 -9 4 -35z m-1561 2 c0 -24 -5 -29 -31 -35 -17 -3 -51 -6
-75 -6 -42 0 -44 1 -44 29 0 33 10 37 103 40 45 1 47 0 47 -28z m1908 7 c91
-11 92 -12 92 -39 0 -15 -3 -30 -8 -32 -4 -3 -54 1 -112 9 -58 7 -126 14 -152
14 -50 0 -53 4 -41 49 7 26 5 26 221 -1z m-2170 -35 l3 -30 -90 -12 c-50 -7
-95 -10 -101 -6 -5 3 -10 17 -10 30 0 27 2 28 110 43 83 12 84 11 88 -25z
m2435 1 c11 -4 17 -15 17 -36 l0 -30 -67 7 c-38 4 -71 9 -75 12 -5 2 -8 18 -8
34 l0 30 58 -6 c31 -4 65 -9 75 -11z m-2733 -39 c0 -19 -4 -35 -10 -35 -5 0
-10 9 -10 19 0 11 -3 26 -6 35 -4 11 -1 16 10 16 12 0 16 -10 16 -35z m7453
-6 c-18 -30 -28 -35 -38 -19 -9 15 25 60 41 53 12 -4 11 -10 -3 -34z m-4601
-2 c-3 -30 -7 -33 -28 -29 -17 3 -24 11 -24 26 0 28 8 36 35 36 18 0 20 -5 17
-33z m-3042 -34 c0 -13 -4 -23 -9 -23 -12 0 -23 48 -15 62 9 14 24 -10 24 -39z
m3140 33 c0 -22 -11 -46 -21 -46 -10 0 -12 43 -2 53 11 12 23 8 23 -7z m62
-26 c-3 -18 -10 -30 -19 -30 -10 0 -13 6 -9 16 3 9 6 22 6 30 0 8 6 14 13 14
9 0 12 -10 9 -30z m68 -2 c0 -13 -4 -29 -9 -37 -13 -20 -24 4 -17 35 8 30 26
32 26 2z m-3428 -18 c5 -30 -3 -46 -16 -33 -9 10 -7 63 3 63 5 0 11 -14 13
-30z m3491 -2 c-7 -39 -9 -42 -21 -34 -13 8 -2 66 14 66 10 0 12 -9 7 -32z
m-3554 -30 c1 -27 -18 -22 -25 6 -8 32 6 58 17 30 4 -10 8 -27 8 -36z m-67 2
c3 -19 0 -30 -8 -30 -11 0 -25 55 -16 65 10 9 20 -6 24 -35z m8138 -22 c49
-34 90 -65 90 -69 0 -4 -8 -17 -19 -30 l-19 -23 -78 53 c-111 76 -109 74 -89
105 10 14 19 26 21 26 2 0 44 -28 94 -62z m-4361 35 c0 -10 -4 -27 -8 -37 -11
-28 -25 -2 -17 30 7 28 26 33 25 7z m-3843 -18 c4 -14 3 -29 0 -33 -9 -8 -26
18 -26 41 0 26 19 20 26 -8z m-93 -22 c8 -45 -36 -61 -47 -18 -8 31 -1 45 23
45 12 0 20 -9 24 -27z m4127 -2 c0 -26 -10 -51 -21 -51 -10 0 -12 31 -3 54 9
22 24 20 24 -3z m-4228 -11 c0 -11 1 -25 2 -32 1 -12 -132 -50 -138 -39 -2 3
-6 18 -9 32 -6 25 -4 27 61 42 37 8 70 15 75 16 4 1 8 -8 9 -19z m4450 -26
c76 -16 78 -17 71 -43 -3 -14 -7 -29 -9 -32 -7 -12 -189 36 -188 49 1 6 2 22
3 33 1 17 6 20 23 16 12 -4 57 -14 100 -23z m-4638 -30 c4 -15 6 -28 4 -29 -2
-1 -63 -19 -136 -39 -73 -21 -139 -39 -146 -42 -9 -3 -18 7 -24 26 -9 23 -8
32 1 35 57 19 256 74 273 74 15 1 24 -7 28 -25z m4902 -41 c60 -16 63 -18 57
-43 -3 -14 -8 -28 -12 -32 -7 -9 -141 30 -141 40 1 21 14 52 22 52 5 0 38 -8
74 -17z m2128 -5 c-4 -7 -3 -8 4 -4 15 9 128 -45 347 -167 743 -413 1502 -977
2099 -1557 l138 -135 63 69 c34 38 67 66 72 63 7 -4 9 0 6 11 -2 10 5 26 17
37 31 28 47 27 45 -3 -1 -19 -8 -28 -25 -32 -17 -4 -21 -8 -12 -14 10 -6 8
-13 -7 -29 -52 -57 -111 -135 -111 -149 0 -8 -13 -27 -30 -43 -16 -16 -30 -32
-30 -37 0 -16 65 -24 90 -11 36 19 42 17 80 -22 18 -19 36 -32 40 -30 4 3 10
-4 13 -15 3 -13 11 -18 26 -15 19 3 26 -5 22 -27 0 -4 6 -5 14 -2 9 4 15 0 15
-7 1 -9 6 -7 16 6 9 11 14 14 12 6 -5 -18 26 -51 47 -51 8 0 15 -4 15 -10 0
-5 6 -10 14 -10 8 0 17 -9 21 -20 3 -11 9 -19 13 -19 24 4 34 -3 28 -18 -4
-10 -4 -14 0 -10 4 4 14 1 23 -6 8 -6 5 3 -7 20 -13 18 -29 36 -37 40 -10 7
-10 10 0 20 10 9 15 6 24 -13 7 -15 16 -22 23 -18 6 4 8 3 5 -3 -8 -12 90
-106 103 -98 4 2 13 -2 20 -10 8 -9 8 -15 2 -15 -6 0 -13 5 -15 10 -3 6 -4 5
-3 -2 1 -7 13 -15 27 -18 13 -3 25 -11 25 -18 1 -7 2 -16 3 -22 0 -5 8 -10 16
-10 8 0 14 -5 12 -11 -1 -6 4 -14 12 -17 9 -3 11 0 6 8 -6 9 -4 11 4 6 7 -5
10 -14 7 -22 -3 -8 1 -14 9 -14 8 0 15 -7 15 -15 0 -8 6 -15 13 -15 8 0 7 -4
-3 -10 -13 -8 -13 -10 1 -10 9 0 24 -9 34 -20 18 -20 18 -21 0 -14 -16 7 -16
4 4 -17 13 -13 32 -37 42 -54 10 -16 19 -26 19 -22 0 4 10 -4 23 -18 l22 -26
157 151 158 152 -15 28 c-51 99 -14 219 88 288 39 26 47 27 107 21 64 -6 65
-7 128 -75 36 -38 68 -79 73 -92 15 -40 10 -86 -17 -140 -52 -104 -160 -141
-282 -96 l-43 16 -155 -153 c-85 -85 -157 -162 -160 -172 -3 -10 0 -26 8 -35
9 -13 7 -12 -10 2 -23 20 -24 19 -27 -26 -2 -22 2 -28 19 -29 12 0 15 -3 9 -6
-9 -3 -10 -10 -3 -24 6 -10 8 -19 4 -19 -3 0 -2 -6 3 -12 6 -7 13 -22 16 -33
6 -17 4 -17 -13 4 -11 13 -20 19 -20 13 0 -6 15 -23 33 -37 17 -15 26 -24 19
-20 -11 6 -11 3 -1 -13 7 -12 17 -18 21 -16 4 3 8 0 8 -6 0 -6 -6 -13 -14 -16
-9 -4 -14 -18 -13 -39 2 -28 5 -32 20 -24 9 6 17 14 17 20 0 6 4 9 9 7 10 -3
160 -212 168 -234 2 -6 -23 -31 -56 -55 -33 -24 -56 -45 -51 -47 6 -2 10 -10
10 -18 0 -7 -6 -11 -13 -8 -8 3 -13 -3 -13 -15 0 -11 5 -17 11 -13 5 3 37 25
70 47 33 23 66 44 72 49 9 5 37 -29 88 -108 41 -63 75 -119 75 -125 0 -5 -44
-37 -97 -72 -54 -34 -108 -68 -119 -76 -21 -13 -24 -11 -57 44 -43 70 -72 105
-80 96 -4 -3 -1 -13 5 -20 10 -12 8 -14 -6 -11 -12 2 -21 -5 -27 -19 -5 -13
-6 -23 -3 -23 2 0 9 10 14 23 6 16 9 17 9 5 1 -9 -6 -24 -15 -32 -8 -9 -11
-16 -6 -16 12 0 26 -47 23 -77 -1 -13 2 -23 7 -23 5 0 9 -6 9 -14 0 -8 -5 -14
-11 -13 -13 2 -10 -29 5 -59 8 -16 7 -29 -5 -52 -9 -18 -12 -33 -6 -37 5 -3 6
-13 3 -22 -4 -9 -2 -14 3 -11 5 4 10 -4 10 -15 3 -54 9 -80 21 -84 8 -3 9 -12
2 -30 -5 -14 -6 -35 -2 -47 4 -11 6 -27 4 -35 -1 -7 2 -10 8 -6 6 3 11 2 11
-4 0 -5 3 -18 6 -28 5 -15 4 -15 -5 -3 -9 13 -11 13 -11 -2 0 -9 8 -18 17 -20
15 -3 15 -5 -3 -22 -18 -18 -29 -56 -15 -54 18 2 21 -4 11 -21 -6 -13 -7 -28
-1 -43 6 -13 10 -17 10 -9 1 8 3 12 6 9 3 -3 -1 -18 -9 -33 -10 -19 -12 -33
-5 -41 7 -8 3 -13 -11 -17 -11 -3 -20 -10 -20 -17 0 -6 4 -9 8 -6 5 3 6 -14 3
-37 -5 -32 -12 -45 -34 -57 -26 -14 -29 -14 -43 4 -12 17 -14 18 -14 3 0 -20
-11 -22 -28 -5 -9 9 -12 8 -12 -7 0 -15 -3 -16 -12 -7 -9 9 -16 8 -30 -5 -10
-9 -18 -13 -18 -8 0 4 -7 2 -16 -6 -9 -7 -34 -12 -61 -10 -34 2 -43 0 -37 -10
5 -9 2 -11 -8 -6 -9 3 -19 3 -23 -1 -4 -4 -10 -7 -13 -7 -4 -1 -17 -6 -29 -13
-15 -8 -23 -9 -23 -2 0 5 -7 10 -16 10 -9 0 -12 5 -8 13 5 8 2 8 -9 -2 -9 -7
-17 -19 -17 -26 0 -7 56 -122 124 -256 153 -300 271 -558 381 -834 162 -407
335 -957 335 -1065 0 -21 3 -40 8 -43 4 -2 2 -2 -5 -1 -6 2 -14 0 -16 -4 -2
-4 -2 -1 -1 6 4 14 -12 16 -21 2 -4 -7 -13 -6 -27 1 -21 11 -37 0 -38 -26 0
-5 -4 -3 -9 5 -6 8 -7 18 -5 22 3 4 1 15 -4 25 -8 13 -11 7 -18 -28 -4 -24 -8
-47 -8 -51 -1 -3 -5 -10 -10 -15 -5 -5 -6 -3 -2 5 4 7 1 12 -9 12 -9 0 -13 5
-10 10 3 6 1 10 -5 10 -8 0 -10 -9 -5 -27 6 -25 5 -26 -7 -10 -25 33 -14 -64
31 -273 58 -270 112 -596 105 -627 -4 -15 -2 -28 6 -33 9 -5 9 -9 1 -14 -6 -4
-11 -2 -11 4 0 6 -4 9 -10 5 -5 -3 -7 -12 -4 -19 7 -19 -9 -27 -26 -14 -12 8
-11 9 5 4 19 -6 19 -5 3 8 -23 17 -23 28 -2 24 10 -2 19 3 21 10 6 17 -28 15
-63 -3 l-29 -15 -18 93 c-64 330 -92 463 -122 583 -19 75 -35 138 -35 141 0 3
-7 3 -14 0 -11 -4 -13 -1 -9 10 4 10 2 14 -4 10 -12 -8 -27 22 -17 32 4 3 9 0
11 -6 3 -7 9 -13 15 -13 7 0 7 5 -1 13 -6 8 -8 16 -5 19 2 3 -2 8 -11 12 -9 3
-14 2 -10 -3 7 -12 -41 -50 -74 -58 -40 -9 -81 -54 -74 -80 5 -23 -10 -32 -22
-13 -4 6 -11 7 -17 4 -7 -5 -9 0 -6 14 4 14 2 20 -5 15 -6 -4 -8 2 -5 15 4 12
2 20 -2 17 -10 -6 -24 31 -16 44 4 5 3 11 -2 13 -4 1 -27 73 -51 158 -186 661
-493 1371 -853 1973 -72 120 -125 187 -147 187 -7 0 -9 -4 -6 -10 3 -5 1 -10
-4 -10 -6 0 -11 4 -11 9 0 12 -53 1 -65 -13 -16 -20 -45 -27 -45 -12 0 17 -33
31 -38 17 -4 -11 -52 7 -52 19 0 4 -7 7 -15 7 -9 0 -14 -6 -11 -14 4 -11 1
-11 -17 1 -13 8 -54 14 -97 16 -41 1 -79 5 -85 9 -5 4 -20 6 -32 5 -13 0 -23
3 -23 9 0 6 -3 7 -7 4 -3 -4 -13 -1 -21 6 -13 10 -15 9 -8 -3 4 -8 -1 -5 -10
8 -16 21 -41 32 -29 12 13 -21 -8 -9 -27 15 -11 14 -25 25 -31 24 -7 -1 -21 1
-32 6 -146 59 -190 74 -193 65 -2 -6 -10 -7 -22 0 -20 11 -23 -7 -3 -31 5 -8
12 -18 14 -24 2 -5 54 -84 115 -175 129 -193 225 -351 241 -400 7 -19 10 -50
8 -69 -2 -19 -2 -38 2 -44 3 -5 8 -28 10 -50 2 -22 8 -46 14 -54 6 -7 9 -20 5
-28 -3 -9 -2 -13 3 -10 10 5 19 -15 27 -61 3 -14 54 -121 114 -238 601 -1165
893 -2411 866 -3691 -4 -170 -8 -321 -10 -335 -2 -14 -7 -70 -10 -125 -4 -55
-9 -111 -11 -125 -2 -14 -7 -52 -10 -85 -28 -288 -99 -683 -185 -1020 -410
-1610 -1313 -3013 -2610 -4054 -1091 -876 -2444 -1438 -3855 -1600 -315 -37
-485 -46 -860 -46 -554 0 -943 38 -1460 140 -870 172 -1692 489 -2450 944 -88
53 -169 96 -181 97 -31 1 -46 14 -39 32 3 9 3 13 -1 9 -4 -4 -13 -2 -20 4 -8
7 -14 7 -19 -1 -3 -6 -12 -8 -18 -4 -7 3 -4 -1 6 -9 34 -28 16 -27 -26 2 -30
20 -48 27 -58 21 -11 -8 -10 -12 9 -25 12 -9 20 -20 17 -25 -3 -5 0 -12 6 -16
8 -5 9 -3 4 7 -5 8 -6 12 -2 9 3 -3 6 -9 7 -15 1 -5 6 -15 11 -22 7 -7 6 -14
-2 -19 -8 -4 -9 -3 -5 4 4 7 1 12 -8 12 -8 0 -17 6 -19 13 -4 8 -6 8 -6 0 -1
-6 11 -21 27 -32 62 -48 71 -57 72 -69 0 -18 -37 3 -210 116 -196 128 -380
263 -380 279 0 7 -6 13 -12 13 -9 0 -9 3 1 9 17 11 93 -28 84 -43 -6 -8 104 1
119 10 4 3 -6 17 -22 33 -30 28 -40 49 -18 35 7 -4 8 -3 4 5 -6 9 -11 9 -22 0
-12 -10 -13 -9 -9 4 4 8 1 18 -6 23 -8 4 -10 3 -5 -4 4 -7 5 -12 2 -12 -2 0
-11 13 -19 29 -13 27 -13 29 2 24 9 -3 0 8 -19 23 -867 705 -1492 1454 -1988
2380 -174 325 -389 814 -375 851 4 11 2 14 -5 9 -12 -7 -29 37 -24 62 2 6 -1
12 -6 12 -5 0 -7 13 -4 29 2 16 0 31 -6 35 -5 3 -7 -6 -4 -22 3 -15 2 -25 -1
-22 -3 3 -8 17 -10 30 -2 14 -7 33 -10 43 -16 40 -15 42 19 41 20 -1 32 3 31
10 -1 6 5 11 13 11 8 0 17 -14 21 -32 3 -18 12 -39 19 -47 6 -9 9 -24 5 -37
-5 -14 -3 -19 3 -15 6 3 13 2 17 -4 3 -5 -2 -10 -12 -11 -15 0 -14 -2 4 -9 16
-7 20 -14 16 -31 -4 -13 -2 -20 4 -16 5 3 29 -42 53 -101 504 -1251 1344
-2342 2434 -3161 1095 -822 2373 -1325 3726 -1465 399 -41 1000 -46 1380 -11
622 57 1216 183 1790 380 1320 453 2487 1269 3360 2350 811 1005 1350 2197
1560 3450 41 243 44 265 75 555 40 375 42 902 4 1320 -69 778 -259 1539 -565
2265 -110 261 -395 817 -453 883 -9 10 -21 27 -28 38 -6 10 -16 18 -23 16 -6
-1 -9 1 -7 5 3 5 -1 19 -9 33 -7 14 -13 21 -14 17 0 -9 -37 30 -90 93 -42 51
-62 70 -73 70 -4 -1 -14 5 -22 12 -71 66 -104 101 -101 106 2 4 -12 18 -31 32
-19 14 -43 32 -53 42 -10 9 -21 14 -24 11 -9 -9 -85 40 -79 50 4 6 0 8 -9 5
-8 -4 -21 -2 -29 2 -11 7 -10 10 4 16 21 8 22 21 3 21 -8 0 -14 -5 -13 -11 1
-6 -6 -10 -15 -8 -10 1 41 -83 136 -225 151 -226 272 -422 361 -586 40 -75 44
-85 28 -91 -10 -4 -14 -4 -10 0 4 4 0 12 -8 18 -7 6 -53 76 -101 156 -166 277
-397 612 -528 765 -28 33 -55 66 -61 73 -30 39 -86 92 -97 92 -7 0 2 -14 20
-30 17 -16 32 -33 32 -36 0 -3 37 -56 83 -118 190 -254 343 -484 469 -701 113
-197 158 -282 151 -289 -4 -3 -1 -6 5 -6 7 0 12 -4 12 -9 0 -5 -9 -7 -20 -4
-11 3 -20 9 -20 14 0 15 -231 390 -344 559 -162 242 -436 597 -591 766 -363
396 -634 655 -930 889 -27 22 -70 57 -94 79 -41 37 -42 38 -15 32 87 -22 597
-462 932 -804 45 -46 82 -80 82 -75 0 16 -55 88 -85 111 -15 12 -24 22 -20 22
11 0 -118 132 -289 297 -137 132 -330 302 -473 417 -65 52 -90 86 -64 86 12 0
172 -123 311 -239 158 -131 165 -137 388 -343 34 -32 64 -58 66 -58 2 0 0 17
-5 37 -4 21 -6 39 -4 42 3 2 -4 16 -15 32 -15 20 -17 29 -8 32 8 3 6 6 -4 6
-16 1 -24 25 -19 54 1 5 -3 6 -8 3 -5 -4 -12 3 -16 14 -3 11 -13 20 -21 20
-11 0 -13 6 -9 20 5 15 2 20 -14 20 -14 0 -21 9 -26 31 -5 20 -11 29 -21 25
-8 -3 -14 1 -14 9 0 16 -34 80 -53 100 -23 25 -47 55 -47 61 0 3 -11 20 -25
38 -14 18 -22 36 -18 39 3 4 2 7 -4 7 -5 0 -43 32 -84 72 -41 39 -125 111
-186 160 -62 49 -113 94 -113 99 0 5 -6 9 -14 9 -16 0 -29 27 -19 43 4 6 0 8
-10 4 -11 -4 -14 -2 -10 8 3 8 10 12 17 8 6 -4 4 2 -4 12 -8 10 -10 16 -3 12
6 -4 15 -3 18 3 5 8 12 7 23 -2 13 -11 14 -11 8 0 -14 23 39 -9 169 -102 66
-48 130 -89 143 -92 12 -4 22 -11 22 -17 0 -6 3 -7 7 -4 3 4 17 0 30 -8 13 -9
23 -13 23 -10 0 3 16 -1 35 -9 24 -11 35 -11 35 -4 0 7 6 4 13 -6 8 -11 20
-16 28 -14 8 3 24 -4 37 -15 l22 -20 0 24 c0 14 -7 34 -15 45 -19 25 -19 40 0
24 8 -7 15 -9 15 -5 0 22 133 -91 359 -304 79 -75 148 -135 153 -133 5 1 7 -2
4 -7 -3 -5 1 -14 8 -20 12 -10 13 -8 9 10 -5 17 -3 20 7 14 8 -5 2 7 -12 26
-14 19 -23 40 -21 47 3 7 1 18 -5 25 -13 18 -23 49 -13 43 5 -3 15 2 22 11 10
12 10 14 2 9 -9 -5 -13 0 -13 13 0 20 -14 29 -23 14 -2 -5 -2 -2 -1 5 2 6 -1
12 -6 12 -6 0 -10 18 -10 39 0 22 -5 43 -10 46 -6 4 -8 10 -5 15 3 4 -2 13
-10 20 -18 15 -20 34 -2 23 6 -4 4 5 -6 20 -9 15 -15 27 -11 27 4 0 -5 10 -20
21 -23 18 -26 26 -20 51 3 17 2 33 -3 37 -20 13 -80 160 -75 183 1 4 -9 24
-23 44 -14 20 -25 48 -25 61 0 13 -12 42 -27 66 -15 23 -28 48 -29 55 -1 8
-11 23 -21 35 -10 11 -12 17 -5 13 6 -4 3 9 -9 28 -12 20 -25 36 -31 36 -5 0
-8 10 -6 23 1 12 -26 79 -61 149 -34 70 -64 133 -65 140 -2 16 -47 81 -58 86
-5 2 -6 8 -2 13 3 5 0 9 -5 9 -6 0 -11 9 -11 19 0 11 -5 21 -11 23 -5 2 -11
10 -13 18 -2 8 -9 29 -15 45 -7 17 -15 39 -17 49 -2 11 -9 23 -16 27 -6 4 -13
16 -14 26 -5 43 -33 128 -43 131 -6 2 -9 8 -6 12 32 51 -511 392 -1073 674
-106 54 -190 101 -187 106 3 4 -2 11 -11 14 -10 4 -13 2 -7 -7 4 -7 -4 -5 -17
4 -31 21 -28 54 6 86 24 22 26 22 67 7 81 -31 543 -263 702 -352 88 -49 235
-135 328 -190 92 -55 173 -99 180 -98 6 1 27 17 45 35 22 23 39 32 52 28 11
-3 20 -2 20 2 0 17 89 31 165 25 44 -3 103 -7 130 -9 28 -1 74 -10 104 -19 29
-8 57 -13 62 -10 4 2 16 1 26 -4 29 -15 89 -32 129 -38 20 -2 43 -9 50 -15 7
-6 19 -7 25 -3 8 4 9 3 5 -4 -4 -7 -2 -12 3 -12 6 0 11 5 11 11 0 7 9 5 24 -4
13 -9 33 -13 45 -10 12 3 27 0 34 -6 8 -6 17 -7 21 -3 4 4 6 0 4 -8 -2 -10 6
-15 24 -16 15 -1 33 -6 40 -12 20 -16 88 -31 148 -33 30 -1 58 -6 61 -12 4 -5
12 0 18 12 14 26 33 27 54 3 13 -15 14 -21 4 -32 -9 -10 -9 -11 1 -6 6 4 12 2
12 -3 0 -6 5 -11 11 -11 5 0 8 3 6 8 -8 12 46 7 70 -6 12 -7 34 -13 50 -15 15
-2 38 -9 49 -15 12 -6 24 -8 28 -4 4 3 10 2 14 -3 17 -24 82 -36 158 -29 65 6
76 5 69 -7 -6 -11 -5 -11 4 -3 8 7 27 8 54 3 47 -8 61 -4 53 17 -3 9 2 14 14
14 11 0 20 -7 20 -15 0 -10 10 -15 30 -15 17 0 30 5 30 11 0 6 -6 9 -13 6 -8
-3 -20 -1 -28 5 -11 8 -10 9 4 4 9 -3 17 -1 17 4 0 10 70 1 86 -11 6 -5 14 -6
18 -2 4 4 4 0 1 -9 -5 -11 -1 -16 12 -15 26 3 47 25 36 40 -4 7 0 4 10 -6 9
-11 17 -15 17 -10 0 22 -339 332 -600 549 -456 378 -950 716 -1495 1024 -125
70 -235 158 -235 188 0 7 -3 11 -7 9 -5 -3 -14 1 -21 9 -7 8 -9 14 -5 14 4 0
0 7 -9 14 -16 12 -16 14 7 26 14 7 25 17 25 22 0 4 5 8 11 8 6 0 9 -7 5 -15
-3 -8 -1 -15 3 -15 19 0 41 13 41 23 0 6 -2 8 -5 5 -10 -9 -67 51 -60 63 5 8
10 8 18 0 16 -16 27 -13 20 6 -5 12 -3 14 7 8 9 -6 11 -4 5 5 -9 15 11 30 43
30 15 0 21 -4 16 -12z m1822 -64 c35 -25 64 -49 64 -54 0 -4 -8 -18 -18 -31
l-19 -22 -66 47 c-37 26 -67 53 -67 59 0 10 29 47 37 47 3 0 33 -21 69 -46z
m-9267 -24 c1 -13 0 -13 -9 0 -5 8 -9 24 -9 35 l0 20 9 -20 c5 -11 9 -27 9
-35z m5505 39 c43 -11 44 -11 34 -43 -10 -33 -11 -33 -49 -22 -48 14 -51 18
-43 50 7 30 3 29 58 15z m-5630 -88 c-7 -7 -12 3 -18 34 l-6 30 14 -30 c8 -16
12 -32 10 -34z m5805 30 c20 -13 6 -61 -19 -61 -26 0 -32 13 -20 44 10 28 17
31 39 17z m-5934 -48 c4 -14 2 -23 -4 -23 -6 0 -11 3 -11 8 0 4 -3 18 -6 32
-8 31 11 16 21 -17z m6049 8 c7 -11 -10 -61 -21 -61 -22 1 -34 19 -27 43 6 27
36 37 48 18z m-6178 -46 c9 -37 -2 -41 -14 -6 -7 18 -7 31 -2 31 5 0 12 -11
16 -25z m6258 3 c-11 -39 -19 -48 -32 -39 -20 12 -4 61 20 61 15 0 18 -4 12
-22z m3583 -17 c18 -14 33 -28 33 -31 -1 -3 -9 -15 -20 -28 l-20 -24 -44 33
c-45 32 -47 38 -18 71 16 19 20 18 69 -21z m-3487 5 c0 -14 -24 -66 -30 -66
-15 0 -21 18 -14 45 4 16 13 25 25 25 10 0 19 -2 19 -4z m-6515 -76 c-11 -18
-23 -11 -33 19 -8 22 -7 31 1 34 14 5 41 -39 32 -53z m1485 48 c0 -2 12 -61
25 -133 14 -71 32 -170 40 -220 8 -49 23 -136 33 -192 10 -57 17 -103 15 -103
-3 0 -76 -16 -163 -35 -1994 -436 -3769 -1579 -4977 -3205 -587 -790 -1036
-1680 -1312 -2600 -475 -1580 -480 -3247 -16 -4840 307 -1055 848 -2074 1559
-2940 192 -234 345 -401 580 -635 220 -219 330 -315 361 -315 10 0 13 -4 8
-12 -4 -7 5 -5 20 5 28 18 62 22 71 8 3 -5 15 -11 26 -14 11 -3 18 -2 16 2 -3
4 11 5 31 3 23 -3 33 -1 29 6 -8 13 192 13 218 0 10 -6 33 -12 50 -15 17 -2
42 -12 56 -21 17 -11 53 -17 115 -19 131 -4 129 -3 273 -81 50 -28 106 -53
122 -57 17 -4 28 -11 24 -16 -3 -5 0 -9 6 -9 6 0 60 -29 119 -66 78 -47 129
-87 182 -142 112 -117 191 -204 179 -197 -18 11 -11 -5 14 -32 14 -15 23 -30
21 -34 -3 -4 2 -9 10 -13 8 -3 15 -11 15 -19 0 -7 13 -26 30 -42 16 -15 37
-50 46 -77 8 -26 20 -46 25 -42 5 3 9 -4 9 -16 0 -11 7 -23 16 -27 8 -3 13
-11 10 -18 -2 -7 6 -24 19 -39 12 -15 29 -41 36 -59 7 -17 18 -35 23 -39 6 -4
11 -11 11 -15 1 -11 37 -66 52 -78 7 -5 26 -37 43 -70 18 -33 39 -67 49 -75 9
-8 32 -40 50 -70 33 -54 65 -96 116 -153 14 -15 25 -34 25 -41 0 -7 11 -23 25
-36 14 -13 25 -35 25 -49 0 -21 2 -23 10 -11 8 13 10 12 10 -3 0 -30 31 -67
72 -88 57 -29 267 -111 473 -185 99 -35 199 -71 223 -80 23 -9 42 -22 42 -30
0 -9 4 -13 9 -10 4 3 8 -7 7 -22 0 -15 4 -26 9 -25 6 1 10 -12 10 -28 0 -16
-4 -30 -8 -30 -25 -4 -351 98 -581 181 -91 33 -175 60 -185 60 -11 0 -22 -8
-26 -17 -11 -34 -52 -71 -86 -78 -19 -4 -40 -12 -46 -17 -7 -6 -29 -7 -48 -4
-20 4 -35 3 -35 -2 0 -6 -25 -13 -55 -17 -30 -3 -57 -11 -61 -16 -3 -6 -27 -8
-56 -5 -46 5 -49 4 -43 -15 6 -17 3 -19 -22 -14 -15 4 -34 8 -40 10 -7 3 -23
-6 -34 -18 -12 -12 -19 -16 -14 -9 5 10 0 12 -23 9 -16 -3 -39 -10 -50 -16
-11 -6 -23 -7 -26 -2 -3 4 -16 8 -28 7 -27 -1 -36 -27 -37 -108 -1 -35 -6 -58
-13 -61 -8 -3 -6 -6 5 -6 10 -1 22 10 27 24 l9 25 78 -36 c43 -20 86 -39 96
-41 12 -4 16 -11 11 -22 -3 -9 -9 -24 -11 -34 -7 -24 -17 -22 -118 23 -77 34
-92 37 -101 25 -9 -12 -13 -10 -24 11 -12 22 -12 27 0 34 9 6 10 10 3 10 -6 0
-13 15 -15 33 l-3 32 -18 -32 -18 -33 -70 36 c-62 31 -70 38 -65 58 5 20 2 23
-24 23 -18 0 -30 -6 -30 -14 0 -15 -76 -18 -100 -3 -17 11 -53 -16 -43 -34 4
-7 3 -8 -5 -1 -5 6 -12 19 -14 29 -3 19 -3 19 -18 1 -13 -17 -13 -18 0 -10 8
4 12 4 7 0 -12 -14 -39 -15 -72 -5 -16 5 -48 10 -70 12 -22 1 -42 4 -45 8 -3
3 -36 16 -73 29 -47 16 -72 20 -79 13 -11 -11 -63 2 -82 19 -19 17 -26 9 -26
-26 0 -23 -6 -38 -16 -42 -24 -9 -36 11 -42 65 -4 43 -8 50 -35 60 -16 6 -34
9 -40 5 -6 -3 -7 -1 -3 5 4 7 -6 12 -26 14 -21 2 -32 8 -30 16 1 8 -2 11 -7 8
-5 -3 -22 1 -37 9 -16 8 -33 15 -38 15 -5 0 -33 18 -62 40 -29 22 -63 40 -76
40 -21 0 -175 121 -219 171 -9 11 -19 19 -22 19 -6 0 -17 -90 -19 -165 0 -33
-5 -63 -10 -66 -6 -4 3 -20 18 -36 51 -54 535 -355 844 -526 45 -25 103 -75
190 -162 107 -107 123 -128 114 -143 -7 -9 -19 -16 -29 -14 -9 2 -14 -1 -11
-6 3 -6 -13 -4 -37 3 -79 23 -99 26 -92 15 4 -6 -3 -8 -17 -6 -13 3 -27 5 -31
5 -5 1 -5 7 -1 14 6 9 5 9 -7 0 -9 -7 -26 -10 -40 -7 -13 3 -35 7 -49 10 -13
3 -30 10 -37 16 -7 6 -13 8 -13 4 0 -3 -25 5 -56 19 -31 14 -60 23 -64 20 -4
-3 -41 15 -81 39 -41 24 -162 96 -269 160 -268 159 -356 215 -522 330 -290
201 -684 505 -799 616 -64 61 -87 80 -100 80 -5 0 -7 5 -4 10 3 6 -4 10 -18
10 -30 0 -44 16 -49 55 -2 22 -8 29 -21 27 -11 -2 -21 6 -27 24 -6 14 -19 28
-29 31 -13 3 -18 12 -16 29 1 13 -2 24 -8 24 -6 0 -7 3 -4 7 4 3 -2 13 -13 20
-11 8 -18 17 -16 21 2 4 -2 18 -10 32 -7 14 -13 21 -14 16 0 -5 -9 -1 -20 9
-15 14 -20 15 -20 4 0 -11 -2 -11 -10 1 -13 20 -13 43 0 35 6 -3 7 1 4 9 -3 9
-16 14 -27 13 -17 -2 -23 4 -25 27 -2 16 -11 30 -21 33 -11 3 -18 16 -19 36
-3 39 -8 43 -27 27 -17 -15 -19 -7 -5 21 7 13 7 19 0 19 -5 0 -10 5 -10 11 0
5 -16 30 -37 54 -29 35 -40 42 -54 35 -40 -22 -23 18 33 77 l60 61 136 -133
c152 -147 392 -365 404 -365 4 0 26 25 50 55 23 30 46 55 50 55 22 0 5 -61
-27 -101 l-36 -44 48 -43 c200 -181 797 -632 836 -632 12 0 13 6 6 28 -5 15
-11 80 -15 145 -4 84 -10 122 -21 132 -8 8 -11 15 -6 15 4 0 -1 7 -11 15 -11
8 -16 15 -11 15 5 0 -7 17 -27 37 -20 21 -38 49 -40 63 -2 14 -6 27 -9 30 -3
3 -20 26 -38 53 -17 26 -37 47 -43 47 -5 0 -8 7 -4 15 3 9 0 15 -9 15 -14 0
-20 12 -16 34 1 4 -5 13 -13 20 -17 14 -33 62 -17 52 6 -4 11 -4 11 -1 0 9
-51 55 -61 55 -5 0 -9 5 -9 11 0 5 5 7 10 4 16 -10 12 7 -10 43 -11 17 -25 32
-32 32 -6 0 -8 3 -5 7 4 4 -14 26 -40 49 l-47 43 21 23 c19 21 20 24 6 37 -14
13 -18 12 -34 -7 -21 -27 -31 -27 -52 -4 -15 17 -15 20 -1 41 9 12 26 26 38
31 18 7 18 9 3 9 -10 1 -15 6 -12 11 3 6 1 10 -4 10 -6 0 -11 5 -11 12 0 6 -9
21 -19 32 -11 12 -21 28 -23 35 -2 8 -15 26 -30 39 -16 13 -28 32 -28 43 0 10
-4 19 -10 19 -5 0 -10 6 -10 14 0 7 -7 19 -15 26 -8 7 -12 17 -9 22 3 5 -2 16
-12 24 -11 9 -12 12 -4 8 8 -4 -2 11 -22 32 -21 22 -38 46 -38 54 0 8 -13 35
-29 59 -16 24 -28 54 -26 67 1 13 -2 21 -6 18 -5 -3 -9 3 -9 13 0 11 -6 25
-12 31 -10 10 -10 15 1 21 9 6 10 11 2 15 -6 4 -11 2 -11 -5 0 -8 -4 -8 -13
-1 -15 13 -21 62 -7 62 6 0 9 6 7 13 -1 6 3 11 10 10 17 -4 8 35 -14 61 -48
56 -117 126 -125 126 -5 0 -67 -47 -138 -105 -70 -58 -133 -105 -138 -105 -6
0 -13 -6 -16 -12 -3 -7 -4 0 -2 15 2 20 0 25 -7 18 -21 -21 -42 -10 -91 45
l-48 55 23 25 23 24 53 -52 c29 -29 53 -58 53 -66 0 -8 9 -3 23 11 12 13 68
64 125 112 l103 88 -64 66 c-143 150 -423 488 -594 718 -1055 1416 -1654 3022
-1793 4813 -18 229 -24 856 -11 1105 69 1295 383 2483 957 3625 572 1139 1339
2105 2326 2926 1017 847 2276 1488 3568 1815 263 66 500 117 500 107z m5113
-4 c7 -8 -13 -64 -23 -64 -15 0 -21 18 -14 45 6 23 23 33 37 19z m-6693 -43
c5 -11 10 -24 10 -30 0 -17 -27 -13 -34 5 -16 41 4 62 24 25z m6778 -22 c-10
-30 -38 -40 -38 -13 0 26 20 54 34 48 11 -4 12 -12 4 -35z m-6858 -41 c0 -10
-4 -18 -10 -18 -15 0 -32 40 -25 58 6 15 8 15 21 -2 8 -11 14 -28 14 -38z
m6950 24 c0 -25 -25 -56 -38 -48 -8 4 -8 15 0 36 11 33 38 41 38 12z m3384
-11 c17 -19 17 -21 -1 -45 -22 -31 -25 -31 -47 -7 -17 18 -17 21 -1 45 21 31
27 32 49 7z m-10425 -31 c9 -27 8 -30 -10 -30 -10 0 -19 3 -19 8 0 4 -3 17 -6
30 -10 35 22 28 35 -8z m7131 8 c0 -19 -21 -48 -35 -48 -18 0 -18 -1 -4 38 7
20 15 29 25 25 8 -3 14 -9 14 -15z m-7222 -37 c10 -28 7 -41 -8 -41 -11 0 -31
50 -25 61 11 17 23 9 33 -20z m10617 -21 c18 -20 18 -21 -5 -45 -24 -25 -24
-25 -43 -6 -18 18 -18 20 -2 45 21 31 26 32 50 6z m-10706 -17 c10 -21 9 -28
-1 -34 -9 -6 -17 0 -25 19 -19 46 5 61 26 15z m7461 -22 c-6 -12 -15 -21 -21
-21 -6 0 -8 4 -5 9 3 4 11 21 17 37 9 22 13 25 16 12 2 -9 -1 -26 -7 -37z
m-7532 -10 c6 -16 8 -32 5 -35 -14 -14 -41 -4 -51 19 -9 20 -8 26 6 34 25 15
29 14 40 -18z m7651 -53 c-17 -31 -23 -9 -8 28 9 22 13 25 16 12 2 -9 -1 -27
-8 -40z m3206 42 c9 -14 -22 -60 -40 -60 -23 0 -27 19 -8 45 19 26 38 32 48
15z m-10960 -40 c9 -16 11 -30 6 -30 -5 0 -16 -2 -23 -5 -20 -8 -44 45 -26 56
21 14 27 11 43 -21z m7883 -40 c-5 -17 -14 -30 -19 -30 -12 0 -11 14 2 44 16
35 30 23 17 -14z m3159 4 c3 -9 -3 -24 -15 -37 -18 -17 -23 -18 -37 -7 -14 12
-14 15 6 37 26 27 37 29 46 7z m-11177 -46 c0 -4 -18 -17 -40 -28 l-39 -20
-16 30 -16 30 43 19 c43 18 43 18 55 -3 7 -11 12 -24 13 -28z m8145 0 c-9 -27
-22 -44 -30 -36 -8 7 16 58 27 58 5 0 6 -10 3 -22z m3115 -18 c12 -7 11 -13
-10 -34 -13 -15 -27 -26 -32 -26 -18 0 -20 32 -3 50 20 23 24 23 45 10z
m-11421 -36 c6 -15 10 -28 9 -29 -9 -8 -130 -66 -133 -63 -9 11 -26 50 -23 54
11 10 114 64 124 64 6 0 16 -12 23 -26z m8561 -54 c77 -39 140 -74 140 -79 0
-5 -8 -19 -18 -31 l-18 -22 -134 67 c-74 37 -137 69 -139 71 -4 4 19 64 25 64
3 0 67 -32 144 -70z m2950 11 c-1 -18 -40 -50 -54 -45 -22 8 -20 23 6 51 16
17 24 20 35 12 7 -6 13 -14 13 -18z m65 -95 c-20 -29 -28 -32 -44 -12 -8 10
-6 20 10 40 19 24 23 26 36 13 13 -13 13 -18 -2 -41z m-11807 20 c12 -28 12
-28 -96 -85 -61 -32 -64 -32 -77 -14 -8 10 -15 23 -15 29 0 12 145 93 166 94
6 0 16 -11 22 -24z m9030 -63 c74 -42 74 -41 56 -75 l-15 -29 -57 31 c-76 43
-78 45 -64 75 15 31 22 31 80 -2z m2867 7 c9 -14 -22 -60 -40 -60 -23 0 -27
19 -8 45 19 26 38 32 48 15z m-12159 -122 c-13 -9 -40 38 -30 53 4 6 13 -1 24
-18 12 -19 14 -30 6 -35z m9435 32 c18 -10 18 -13 4 -40 -17 -34 -23 -36 -50
-16 -18 13 -18 15 -2 40 20 29 21 30 48 16z m2870 -69 c-6 -10 -17 -23 -25
-30 -25 -21 -30 8 -6 34 25 27 45 24 31 -4z m-2771 9 c0 -21 -32 -59 -46 -53
-11 4 -11 9 2 34 14 28 44 40 44 19z m-9708 -35 c6 -14 8 -28 5 -32 -8 -8 -36
26 -37 45 0 21 20 13 32 -13z m9761 9 c8 -8 -20 -64 -32 -64 -17 0 -19 14 -5
41 14 29 25 35 37 23z m51 -65 c-8 -16 -21 -29 -29 -29 -19 0 -19 4 0 40 10
19 20 27 30 24 13 -5 13 -10 -1 -35z m-9948 -24 c8 -13 13 -29 9 -36 -5 -7
-14 -1 -26 17 -10 15 -16 31 -13 36 8 12 12 10 30 -17z m10011 8 c6 -16 -32
-57 -46 -49 -8 5 -7 15 6 37 17 28 33 33 40 12z m2723 9 c0 -15 -48 -54 -54
-44 -7 12 22 52 40 52 8 0 14 -4 14 -8z m-4200 -32 c0 -5 -4 -10 -10 -10 -5 0
-10 5 -10 10 0 6 5 10 10 10 6 0 10 -4 10 -10z m-8586 -24 c10 -17 12 -27 5
-31 -11 -8 -38 22 -39 43 0 20 17 14 34 -12z m-44 -58 c0 -19 -20 -15 -34 7
-23 35 -9 55 15 24 10 -13 19 -27 19 -31z m10240 18 c0 -8 -9 -24 -19 -37 -17
-21 -20 -22 -26 -7 -4 9 1 28 10 42 17 26 35 27 35 2z m2676 -34 c-14 -14 -29
-23 -32 -19 -10 10 37 58 48 50 6 -3 -2 -17 -16 -31z m-12986 3 c7 -14 10 -28
6 -32 -9 -9 -47 38 -40 49 9 14 20 8 34 -17z m-79 -51 c12 -23 12 -27 -6 -40
-17 -12 -20 -11 -36 13 -17 25 -17 27 -1 40 24 17 27 16 43 -13z m10556 -20
c1 -5 -6 -20 -17 -34 -14 -19 -22 -22 -30 -14 -9 9 -8 18 5 38 17 26 36 30 42
10z m2637 -13 c8 -12 -41 -54 -54 -46 -8 5 -5 15 11 31 24 25 35 29 43 15z
m-13277 -28 c13 -20 11 -24 -43 -62 -32 -23 -60 -41 -63 -41 -3 0 -14 11 -23
24 -17 23 -17 24 40 64 31 23 61 40 66 39 5 -2 16 -13 23 -24z m10821 -78 c39
-27 71 -52 72 -55 0 -3 -10 -17 -23 -32 l-22 -28 -83 61 -82 61 21 29 c13 18
25 26 33 22 7 -5 44 -30 84 -58z m2662 -107 c159 -173 145 -151 111 -176 l-29
-21 -121 131 -121 132 22 23 c12 13 24 23 28 23 4 0 53 -51 110 -112z m-13644
77 c9 -14 15 -27 13 -29 -24 -20 -235 -169 -244 -172 -7 -3 -19 6 -28 20 l-17
25 123 90 c67 49 125 90 129 90 4 1 15 -10 24 -24z m11205 -131 c49 -37 57
-48 50 -63 -25 -45 -37 -44 -100 5 l-60 47 20 28 c11 16 23 29 25 29 3 0 32
-21 65 -46z m1831 -73 c16 9 19 8 16 -3 -3 -7 -20 -14 -38 -16 -31 -3 -32 -2
-20 13 9 11 16 13 18 6 3 -8 9 -8 24 0z m-1671 -52 l39 -30 -22 -30 c-12 -16
-24 -29 -27 -29 -3 1 -23 15 -44 33 l-38 33 21 27 c12 15 24 27 27 27 3 0 23
-14 44 -31z m-11701 -27 c0 -9 -7 -6 -20 11 -11 14 -20 29 -20 33 0 4 9 -1 20
-11 11 -10 20 -25 20 -33z m14209 -41 c28 -33 51 -63 51 -68 0 -4 -12 -16 -25
-26 l-25 -18 -53 57 c-28 31 -54 61 -56 66 -4 12 29 48 44 48 7 0 35 -27 64
-59z m-14328 -13 c27 -33 23 -45 -6 -18 -24 22 -32 40 -19 40 3 0 14 -10 25
-22z m11979 -47 c-1 -3 -10 -17 -21 -30 -17 -21 -23 -22 -44 -13 -30 14 -31
20 -3 53 21 25 24 26 45 12 13 -9 23 -18 23 -22z m-12066 -70 c-7 -8 -44 32
-44 48 0 11 8 6 24 -14 13 -16 22 -32 20 -34z m14529 -5 c15 -22 14 -25 -8
-46 -24 -23 -25 -23 -45 -5 -26 23 -25 32 3 56 29 24 32 24 50 -5z m-14633
-80 c-1 -6 -10 0 -20 13 -11 13 -20 28 -20 35 1 6 10 0 20 -13 11 -13 20 -28
20 -35z m14696 -45 c-20 -20 -28 -23 -38 -13 -18 18 29 67 49 50 12 -9 10 -16
-11 -37z m-14841 -41 c14 -15 16 -23 7 -32 -8 -8 -16 -5 -31 13 -31 38 -9 55
24 19z m-70 -60 c14 -16 16 -23 7 -32 -10 -10 -17 -7 -33 9 -12 11 -18 26 -15
32 10 16 21 14 41 -9z m-61 -100 c-13 -13 -59 34 -49 50 5 8 15 4 33 -14 18
-18 23 -29 16 -36z m-79 -30 c14 -16 16 -23 7 -32 -10 -10 -17 -7 -33 9 -12
11 -18 26 -15 32 10 16 21 14 41 -9z m14305 5 c11 -13 10 -14 -4 -9 -9 3 -16
10 -16 15 0 13 6 11 20 -6z m-14365 -106 c-5 -7 -16 -3 -31 12 -18 17 -21 25
-13 36 9 10 15 8 31 -12 11 -14 16 -30 13 -36z m-76 -33 c16 -16 19 -26 11
-31 -13 -8 -62 34 -54 46 8 14 19 10 43 -15z m-53 -92 c-18 -12 -22 -12 -43 8
-22 20 -22 23 -6 40 16 18 18 18 42 -7 25 -26 26 -26 7 -41z m15654 -13 c0 -3
-12 -14 -26 -24 -20 -15 -28 -16 -40 -6 -13 11 -11 15 13 35 20 16 32 19 41
12 6 -6 12 -13 12 -17z m-15735 -31 c18 -19 18 -22 2 -37 -16 -16 -18 -16 -38
4 -23 22 -20 53 4 53 8 0 22 -9 32 -20z m15869 -152 l65 -93 -26 -24 -27 -23
-23 28 c-12 16 -44 59 -69 97 l-46 67 23 20 c13 10 27 19 31 20 4 0 36 -42 72
-92z m-15979 42 c18 -20 18 -21 -15 -55 l-34 -35 -23 22 -23 22 32 33 c38 39
39 39 63 13z m-146 -199 c-24 -27 -49 -49 -55 -50 -6 -1 -19 8 -29 18 -17 19
-16 22 31 75 l49 55 24 -24 25 -24 -45 -50z m16309 -104 c23 -34 42 -67 42
-73 0 -11 -49 -49 -54 -42 -1 2 -24 34 -50 72 l-48 70 24 18 c12 9 28 18 33
18 6 0 29 -29 53 -63z m-16443 -27 c4 -6 -22 -44 -56 -84 -61 -73 -63 -74 -86
-59 -12 8 -23 20 -23 25 0 6 27 41 61 79 51 58 64 67 79 59 11 -6 22 -15 25
-20z m16568 -167 l29 -47 -22 -18 c-12 -10 -26 -18 -31 -18 -4 0 -22 20 -38
44 l-31 44 28 21 c15 11 29 20 32 20 3 0 18 -21 33 -46z m-16777 -52 c14 -11
20 -22 15 -26 -13 -8 -63 24 -55 36 8 13 13 11 40 -10z m16887 -125 c15 -23
15 -25 -8 -40 -32 -21 -42 -20 -56 6 -10 18 -8 24 12 39 31 24 34 24 52 -5z
m-16994 -52 c3 -17 2 -17 -20 -2 -13 8 -26 24 -28 34 -3 17 -2 17 20 2 13 -8
26 -24 28 -34z m17062 -56 c10 -18 8 -24 -11 -40 -29 -23 -37 -23 -51 4 -10
18 -8 24 11 40 29 23 37 23 51 -4z m-17170 -46 c28 -23 11 -37 -19 -16 -22 15
-29 34 -13 34 5 0 19 -8 32 -18z m17219 -42 c9 -16 6 -22 -21 -36 -26 -13 -33
-14 -40 -2 -13 19 -12 22 19 40 33 21 29 22 42 -2z m-17261 -9 c15 -11 20 -21
13 -25 -14 -8 -52 15 -52 31 0 18 11 16 39 -6z m11996 -19 c-3 -3 -11 0 -18 7
-9 10 -8 11 6 5 10 -3 15 -9 12 -12z m-12015 -54 c0 -16 -17 -15 -39 1 -33 25
-18 47 14 24 14 -10 25 -21 25 -25z m11937 -85 c675 -497 1260 -1131 1710
-1853 165 -266 309 -536 300 -563 -2 -6 -10 3 -18 21 -7 18 -17 32 -20 32 -4
0 -22 28 -39 62 -52 99 -232 397 -322 531 -423 633 -976 1233 -1553 1686 -60
47 -122 99 -137 115 -16 15 -28 25 -28 21 0 -4 -7 -2 -15 5 -13 11 -12 30 1
30 2 0 57 -39 121 -87z m5401 66 c4 -22 -45 -44 -65 -27 -13 10 -11 14 9 30
27 21 51 20 56 -3z m-17397 -18 c13 -11 21 -23 17 -26 -9 -9 -58 21 -58 35 0
15 15 12 41 -9z m11844 -43 c63 -44 288 -216 350 -267 661 -547 1194 -1185
1613 -1933 97 -173 130 -241 124 -257 -3 -9 0 -11 7 -7 6 4 10 4 9 -1 -1 -4 4
-18 11 -31 12 -22 11 -23 -9 -12 -12 6 -19 14 -16 17 3 4 0 13 -8 22 -7 9 -31
50 -53 91 -318 594 -735 1151 -1233 1651 -250 251 -411 394 -667 596 -95 74
-173 142 -173 150 0 13 2 13 17 2 10 -8 22 -17 28 -21z m4629 -98 c42 -65 76
-121 76 -123 0 -11 -243 -148 -249 -141 -29 33 -142 226 -137 232 6 5 223 147
233 151 1 1 36 -53 77 -119z m-5399 -14 c1178 -703 2120 -1802 2630 -3070 42
-104 73 -191 71 -194 -3 -3 -9 4 -12 14 -60 164 -184 442 -289 649 -550 1077
-1427 2012 -2455 2620 -63 38 -122 75 -130 83 -17 16 37 -13 185 -102z m6373
81 c5 -23 -44 -45 -61 -28 -9 9 -7 16 13 31 28 22 44 21 48 -3z m-17498 -5
c21 -17 21 -18 3 -34 -17 -16 -20 -16 -43 2 -20 15 -22 20 -11 34 17 20 24 20
51 -2z m11824 -19 c357 -258 600 -467 906 -779 321 -328 589 -663 833 -1042
150 -235 364 -619 380 -684 4 -15 15 -34 24 -44 13 -13 14 -16 3 -12 -8 2 -20
13 -25 24 -12 23 -65 117 -158 284 -459 820 -1119 1579 -1872 2154 -49 38 -91
73 -93 78 -2 4 -8 8 -14 8 -9 0 -48 38 -48 47 0 9 17 0 64 -34z m101 -182
c784 -588 1483 -1426 1904 -2281 107 -216 81 -194 -43 37 -338 631 -747 1176
-1263 1684 -257 253 -446 416 -715 619 -69 52 -124 98 -122 102 5 8 88 -48
239 -161z m-11973 95 c-26 -44 -76 -106 -85 -106 -6 0 -19 7 -28 16 -18 16
-17 19 23 75 l41 59 28 -17 c15 -9 25 -21 21 -27z m17608 13 c0 -5 -13 -15
-29 -23 -26 -14 -30 -14 -41 0 -7 8 -11 16 -9 18 36 27 54 34 66 24 7 -6 13
-14 13 -19z m-5922 -9 c12 -11 24 -20 27 -20 8 0 172 -119 270 -195 749 -583
1361 -1321 1802 -2172 47 -90 82 -163 78 -163 -4 0 3 -12 14 -26 23 -29 27
-44 10 -44 -5 0 -7 5 -4 10 3 6 1 10 -5 10 -6 0 -9 4 -6 9 4 5 2 11 -3 13 -5
1 -11 10 -13 18 -2 8 -6 17 -9 20 -3 3 -52 91 -108 195 -488 896 -1125 1630
-1956 2254 -81 61 -141 111 -133 111 8 0 24 -9 36 -20z m132 -199 c258 -191
505 -407 750 -657 339 -345 565 -628 837 -1044 145 -223 360 -618 437 -803 30
-73 -3 -26 -49 71 -113 234 -299 558 -462 800 -443 659 -977 1215 -1626 1692
-86 63 -158 120 -161 127 -5 12 136 -84 274 -186z m-212 46 c774 -546 1397
-1222 1872 -2032 88 -150 326 -622 318 -631 -3 -2 -48 82 -101 188 -460 922
-1092 1690 -1920 2331 -65 51 -151 114 -191 142 -40 27 -86 60 -102 73 l-29
23 33 -16 c19 -9 73 -44 120 -78z m6042 89 c0 -2 2 -11 6 -19 8 -21 -54 -46
-67 -26 -6 10 -2 19 14 31 20 16 47 24 47 14z m-17775 -72 l25 -16 -22 -37
c-12 -20 -51 -80 -86 -133 l-63 -98 -25 17 c-14 9 -23 22 -20 29 6 15 160 254
164 254 1 0 14 -7 27 -16z m16878 -126 c38 -66 65 -124 60 -129 -19 -18 -228
-129 -238 -125 -18 7 -139 226 -129 236 11 10 227 139 234 139 3 0 36 -54 73
-121z m957 80 c0 -4 -13 -14 -30 -23 -27 -14 -30 -14 -39 3 -8 14 -4 20 22 34
30 15 46 11 47 -14z m90 -176 c0 -13 -50 -33 -62 -26 -6 4 -1 12 13 20 28 15
49 18 49 6z m-881 -207 c34 -63 61 -119 61 -125 0 -12 -232 -131 -246 -126
-14 5 -131 233 -123 240 12 12 225 125 236 126 6 0 39 -52 72 -115z m946 75
c3 -5 -8 -16 -24 -25 -38 -19 -52 -1 -14 19 34 19 31 18 38 6z m-18219 -14
c10 -8 16 -17 13 -20 -3 -4 -17 2 -30 13 -27 23 -13 28 17 7z m-46 -139 c0 -4
-13 0 -30 10 -16 9 -30 21 -30 26 0 4 14 0 30 -10 17 -9 30 -21 30 -26z
m18330 13 c0 -10 -32 -30 -49 -30 -19 0 -12 17 12 28 28 14 37 14 37 2z
m-18400 -122 c0 -12 -12 -9 -32 6 -26 19 -22 27 7 14 14 -6 25 -15 25 -20z
m17551 -130 l59 -123 -127 -62 -128 -61 -62 121 c-33 67 -58 125 -55 129 11
12 226 117 240 117 7 1 40 -54 73 -121z m913 113 c5 -7 -42 -31 -60 -31 -13 0
0 19 19 28 28 14 35 14 41 3z m-1824 -81 c9 -16 6 -22 -20 -35 -32 -17 -50
-13 -50 10 0 11 39 41 57 45 1 0 7 -9 13 -20z m-16720 -5 c16 -9 19 -14 9 -15
-8 0 -24 7 -35 15 -24 18 -7 19 26 0z m18610 -53 c0 -4 -13 -13 -30 -19 -35
-13 -53 3 -18 16 29 12 48 13 48 3z m-1846 -28 c4 -9 5 -18 4 -19 -10 -8 -68
-35 -68 -31 0 2 -3 11 -6 19 -4 10 4 21 23 31 36 19 40 19 47 0z m-16829 -94
c-9 -14 -28 -12 -50 3 -30 23 -9 40 26 22 16 -9 27 -20 24 -25z m16875 1 c0
-26 -58 -50 -71 -30 -13 21 -12 24 24 41 36 18 47 15 47 -11z m964 -167 c31
-69 56 -127 54 -129 -18 -16 -251 -106 -258 -99 -13 14 -111 236 -106 241 8 8
231 111 242 112 6 1 37 -56 68 -125z m-17903 106 c16 -9 28 -40 14 -40 -16 0
-55 26 -55 37 0 16 14 17 41 3z m16979 -4 c0 -2 2 -11 6 -19 7 -20 -52 -45
-69 -28 -9 10 -7 17 12 32 21 17 51 26 51 15z m-17025 -78 c24 -11 35 -38 15
-38 -23 0 -58 24 -53 36 6 17 6 17 38 2z m17072 -25 c2 -6 -10 -19 -28 -28
-26 -14 -33 -15 -40 -3 -13 20 -11 24 14 36 27 13 49 11 54 -5z m-17113 -63
c17 -6 24 -14 20 -24 -5 -14 -9 -14 -35 0 -16 8 -27 19 -24 24 8 12 8 12 39 0z
m17154 -22 c2 -13 -35 -38 -57 -38 -23 0 -18 31 7 44 31 17 46 16 50 -6z
m-17177 -91 c-15 -15 -62 8 -55 27 5 14 9 14 36 0 22 -11 27 -19 19 -27z
m18150 -146 c27 -68 48 -125 46 -127 -11 -11 -253 -100 -259 -95 -10 10 -100
242 -95 247 11 11 233 103 245 101 8 -1 36 -58 63 -126z m-18206 87 c26 -12
32 -23 16 -33 -16 -9 -60 16 -54 31 6 17 6 17 38 2z m17305 -11 c0 -19 -50
-41 -63 -28 -7 7 0 15 24 25 42 19 39 19 39 3z m-17320 -97 c-10 -19 -13 -19
-41 -5 -25 13 -28 19 -19 35 10 19 13 19 41 5 25 -13 28 -19 19 -35z m17380
-29 c0 -7 -51 -31 -66 -31 -14 0 0 22 19 30 29 12 47 12 47 1z m-17439 -41
c21 -12 23 -18 10 -38 -6 -10 -13 -11 -34 -1 -26 12 -34 29 -20 42 9 10 21 9
44 -3z m17489 -80 c0 -10 -41 -30 -61 -30 -20 0 -8 19 19 28 36 14 42 14 42 2z
m873 -37 c3 -10 24 -69 46 -130 l41 -113 -33 -13 c-52 -22 -228 -79 -231 -76
-5 7 -78 214 -83 234 -4 17 11 26 119 67 68 26 126 47 129 48 4 0 9 -8 12 -17z
m-18428 -25 c18 -8 24 -17 19 -27 -3 -9 -10 -28 -16 -43 -9 -24 -12 -26 -39
-16 -31 11 -31 13 -8 76 10 26 10 26 44 10z m17605 -66 c0 -12 -59 -31 -65
-22 -3 5 3 13 12 19 21 12 53 14 53 3z m-17663 -95 l21 -12 -26 -65 c-14 -36
-26 -66 -27 -68 -1 -1 -16 3 -33 9 -30 10 -30 11 -16 45 49 119 43 112 81 91z
m17756 -139 c64 -170 65 -175 32 -188 -33 -12 -41 -8 -50 27 -3 16 -27 79 -51
142 -24 63 -43 115 -42 116 13 10 45 24 54 25 6 0 32 -55 57 -122z m883 -119
c23 -68 39 -127 36 -130 -9 -9 -252 -82 -256 -78 -5 6 -81 233 -81 243 0 10
234 97 249 92 5 -1 28 -58 52 -127z m-18716 2 c0 -6 -38 -123 -55 -168 -3 -9
-12 -10 -33 -2 l-30 10 31 93 31 94 28 -10 c15 -6 28 -13 28 -17z m15267 13
c-3 -3 -12 -4 -19 -1 -8 3 -5 6 6 6 11 1 17 -2 13 -5z m17 -30 c5 -14 4 -15
-9 -4 -17 14 -19 20 -6 20 5 0 12 -7 15 -16z m2631 -101 c4 -10 15 -42 26 -71
l18 -53 -25 -9 c-14 -6 -29 -10 -33 -10 -5 0 -20 32 -34 71 l-25 70 22 9 c32
13 43 12 51 -7z m884 -150 c38 -129 54 -193 50 -197 -2 -2 -60 -20 -129 -39
-86 -23 -127 -31 -131 -23 -14 24 -70 238 -64 244 6 6 228 79 247 81 4 1 16
-29 27 -66z m-18913 -3 c18 -7 24 -14 17 -21 -12 -12 -63 5 -63 21 0 13 12 13
46 0z m18098 -42 c3 -13 2 -26 -2 -29 -13 -12 -62 -20 -62 -10 0 5 -3 16 -6
25 -4 11 2 19 17 25 37 15 46 13 53 -11z m31 -107 c6 -11 -1 -16 -37 -25 -21
-5 -28 -3 -28 8 0 20 54 34 65 17z m-18167 -46 c11 -11 -9 -16 -37 -10 -42 9
-41 29 1 21 17 -3 34 -8 36 -11z m18182 -19 c0 -14 -21 -26 -46 -26 -8 0 -14
6 -14 14 0 13 9 17 53 25 4 0 7 -5 7 -13z m17 -69 c-7 -18 -55 -28 -60 -13 -2
6 10 16 27 22 35 13 41 11 33 -9z m862 -114 c18 -69 28 -129 24 -133 -10 -9
-252 -65 -257 -59 -4 4 -65 253 -63 255 15 7 228 62 243 63 19 1 25 -12 53
-126z m-19131 61 c12 -4 22 -12 22 -20 0 -10 -6 -11 -30 -3 -16 6 -30 15 -30
20 0 10 7 11 38 3z m18292 -9 c0 -8 -9 -16 -20 -16 -11 -1 -25 -2 -32 -3 -22
-2 -19 23 4 27 42 8 48 7 48 -8z m-18293 -60 c11 -4 13 -9 6 -16 -12 -12 -67
7 -58 21 3 5 12 7 20 5 8 -3 23 -7 32 -10z m15163 -15 c0 -5 -2 -10 -4 -10 -3
0 -8 5 -11 10 -3 6 -1 10 4 10 6 0 11 -4 11 -10z m-15180 -50 c8 -5 11 -12 8
-15 -9 -9 -68 5 -68 16 0 12 41 11 60 -1z m18350 -24 c0 -17 -49 -31 -63 -17
-7 7 -6 12 4 15 8 2 21 7 29 9 25 9 30 8 30 -7z m-18374 -36 c8 0 14 -7 14
-15 0 -18 -1 -18 -34 -5 -14 5 -26 15 -26 21 0 6 7 8 16 5 9 -3 22 -6 30 -6z
m19273 -340 c-16 -11 -250 -53 -256 -47 -5 6 -63 251 -60 253 1 0 61 14 132
30 l130 30 32 -130 c17 -73 27 -133 22 -136z m-19287 224 c-5 -26 -7 -27 -37
-20 -15 4 -25 13 -25 25 0 25 8 30 38 22 19 -6 26 -13 24 -27z m18438 -38 c0
-16 -51 -29 -64 -16 -6 6 0 13 15 19 34 14 49 13 49 -3z m-18464 -51 c3 -6 -1
-38 -9 -71 -12 -56 -15 -59 -41 -57 -16 1 -30 4 -32 6 -2 2 3 35 12 74 15 66
17 70 41 65 13 -2 27 -10 29 -17z m18513 -157 c23 -98 20 -108 -25 -108 -18 0
-23 12 -41 92 -22 98 -20 108 23 108 19 0 24 -12 43 -92z m-3196 65 c2 -10 8
-27 12 -38 12 -30 -9 -6 -23 28 -6 15 -8 27 -3 27 5 0 11 -8 14 -17z m-15366
-83 c11 0 14 -7 10 -22 -2 -13 -14 -72 -26 -133 -12 -60 -24 -120 -27 -132 -5
-24 -28 -30 -53 -14 -11 7 -10 27 8 122 30 162 39 192 58 185 8 -3 22 -6 30
-6z m19388 -52 c2 -7 6 -31 9 -53 3 -22 12 -74 20 -115 9 -41 12 -77 8 -81 -4
-4 -27 -9 -52 -12 -25 -4 -81 -11 -124 -17 -44 -5 -81 -8 -83 -6 -10 9 -45
237 -38 244 2 3 15 6 27 8 13 2 51 10 86 19 35 8 67 13 71 11 4 -3 13 -1 21 5
21 13 50 11 55 -3z m-769 -213 c7 -38 11 -70 10 -71 0 -1 -15 -4 -33 -7 l-31
-6 -12 71 c-13 76 -7 91 35 86 16 -3 22 -15 31 -73z m818 -141 c9 -22 8 -24
-10 -24 -11 0 -14 5 -10 16 6 15 4 15 -11 3 -16 -13 -17 -12 -4 4 17 21 27 22
35 1z m-789 -29 c16 -78 17 -73 -20 -77 -20 -2 -35 0 -35 7 0 5 -3 26 -6 47
-7 38 -9 36 48 47 4 0 10 -10 13 -24z m-18730 5 c18 -8 17 -9 -7 -9 -15 -1
-30 4 -33 9 -7 12 12 12 40 0z m19451 -10 c18 0 18 -8 -3 -28 -16 -16 -16 -16
-10 1 4 11 2 17 -8 17 -16 0 -20 12 -8 24 4 4 9 2 11 -3 2 -6 10 -11 18 -11z
m19 -49 c-3 -6 -11 -11 -17 -11 -6 0 -6 6 2 15 14 17 26 13 15 -4z m68 -11 c3
-11 0 -23 -5 -27 -7 -3 -8 -1 -4 5 14 23 -15 12 -40 -15 -27 -29 -36 -28 -28
4 4 13 11 20 20 16 10 -4 12 0 7 13 -4 11 -3 15 4 11 6 -4 14 0 17 9 7 19 22
11 29 -16z m-100 -4 c3 -8 -2 -20 -11 -27 -14 -11 -15 -11 -5 0 6 7 9 20 6 27
-3 8 -3 14 0 14 3 0 7 -6 10 -14z m97 -61 c4 3 10 -13 12 -35 2 -22 0 -40 -4
-40 -5 0 -8 6 -9 13 0 9 -2 9 -5 0 -3 -7 -12 -9 -21 -6 -9 4 -14 2 -10 -3 3
-5 -3 -10 -14 -10 -11 0 -18 5 -15 13 3 7 -1 10 -8 7 -8 -3 -17 0 -22 7 -4 7
-3 10 2 6 6 -3 16 -1 24 4 13 8 13 10 1 18 -20 13 -41 2 -41 -22 0 -24 -9 -18
-14 10 -3 11 1 20 7 21 27 2 46 9 60 20 12 10 16 8 22 -10 7 -22 8 -21 13 7 3
20 7 24 9 12 3 -9 8 -15 13 -12z m-19565 5 c18 -8 17 -9 -7 -9 -15 -1 -30 4
-33 9 -7 12 12 12 40 0z m18795 -79 c0 -12 -9 -21 -25 -25 -32 -8 -45 -1 -45
25 0 15 7 19 35 19 28 0 35 -4 35 -19z m-18794 -59 c-5 -8 -66 -4 -66 4 0 2
16 4 36 4 19 0 33 -4 30 -8z m18807 -51 c5 -21 -10 -31 -44 -31 -14 0 -19 7
-19 25 0 21 5 25 29 25 20 0 30 -6 34 -19z m-833 -51 c0 -5 -2 -10 -4 -10 -3
0 -8 5 -11 10 -3 6 -1 10 4 10 6 0 11 -4 11 -10z m40 -5 c0 -1 -7 -8 -15 -15
-13 -10 -15 -9 -15 8 0 15 5 20 15 16 8 -4 15 -7 15 -9z m-18030 -25 c0 -6
-11 -8 -27 -4 -40 10 -41 14 -5 14 18 0 32 -5 32 -10z m18833 -4 c6 -15 -12
-26 -44 -26 -24 0 -25 27 -1 33 31 8 40 7 45 -7z m677 -44 c0 -4 -4 -13 -9
-20 -11 -18 -81 -28 -81 -12 0 6 5 8 10 5 6 -3 10 -1 10 4 0 6 6 11 14 11 7 0
19 7 26 15 12 14 30 12 30 -3z m124 1 c-1 -7 -2 -19 -2 -26 -2 -9 -20 -14 -56
-16 -53 -2 -71 6 -58 25 19 26 118 40 116 17z m-196 0 c-10 -2 -26 -2 -35 0
-10 3 -2 5 17 5 19 0 27 -2 18 -5z m-588 -58 c0 -10 -11 -15 -35 -15 -24 0
-35 5 -35 15 0 10 11 15 35 15 24 0 35 -5 35 -15z m-18875 -75 c0 -11 -8 -14
-30 -12 -36 5 -39 7 -30 22 10 16 60 8 60 -10z m18885 -14 c0 -7 -10 -16 -22
-20 -36 -9 -48 -7 -48 8 0 16 15 24 48 25 12 1 22 -5 22 -13z m-18890 -82 c0
-16 -37 -19 -59 -5 -22 14 -5 28 29 23 17 -2 30 -10 30 -18z m18900 -19 c0
-10 -11 -15 -35 -15 -24 0 -35 5 -35 15 0 10 11 15 35 15 24 0 35 -5 35 -15z
m-18912 -72 c2 -9 -7 -13 -27 -13 -21 0 -31 5 -31 16 0 19 51 16 58 -3z
m18915 -17 c4 -10 -4 -15 -26 -19 -37 -5 -42 -3 -34 18 8 19 53 20 60 1z
m-18923 -82 c0 -9 -11 -14 -30 -14 -22 0 -30 5 -30 18 0 15 6 18 30 14 17 -2
30 -10 30 -18z m18930 -19 c0 -10 -10 -15 -30 -15 -20 0 -30 5 -30 15 0 10 10
15 30 15 20 0 30 -5 30 -15z m-18940 -70 c0 -10 -10 -15 -30 -15 -20 0 -30 5
-30 15 0 10 10 15 30 15 20 0 30 -5 30 -15z m0 -100 c0 -15 -26 -20 -54 -9
-28 11 -17 24 19 24 24 0 35 -5 35 -15z m18948 -12 c-10 -2 -28 -2 -40 0 -13
2 -5 4 17 4 22 1 32 -1 23 -4z m-18958 -74 c0 -14 -7 -19 -30 -19 -23 0 -30 5
-30 19 0 11 6 21 13 24 22 7 47 -5 47 -24z m18965 -59 c-3 -5 -17 -10 -31 -10
-13 0 -24 5 -24 10 0 6 14 10 31 10 17 0 28 -4 24 -10z m-18967 -52 c-2 -18
-9 -23 -32 -21 -34 3 -40 7 -33 28 4 9 19 15 37 15 27 0 31 -3 28 -22z m18977
-78 c4 -6 -8 -10 -29 -10 -20 0 -36 5 -36 10 0 6 13 10 29 10 17 0 33 -4 36
-10z m-18980 -100 c0 -44 -1 -45 -32 -48 l-33 -3 0 51 0 51 32 -3 c31 -3 33
-5 33 -48z m18973 -37 c-10 -2 -28 -2 -40 0 -13 2 -5 4 17 4 22 1 32 -1 23 -4z
m-18980 -165 c-3 -71 -4 -73 -30 -76 l-28 -3 0 75 0 76 30 0 31 0 -3 -72z
m18990 -115 l-3 -158 -32 -3 -33 -3 0 114 c0 63 3 135 6 161 6 43 9 46 36 46
l29 0 -3 -157z m-20680 130 c-10 -2 -26 -2 -35 0 -10 3 -2 5 17 5 19 0 27 -2
18 -5z m0 -120 c-10 -2 -26 -2 -35 0 -10 3 -2 5 17 5 19 0 27 -2 18 -5z m1700
-179 l3 -92 -27 -6 c-14 -4 -29 -5 -32 -2 -2 3 -7 49 -10 101 l-5 96 34 -3 34
-3 3 -91z m-1708 56 c0 -5 -10 -10 -22 -9 -22 0 -22 1 -3 9 11 5 21 9 23 9 1
1 2 -3 2 -9z m20680 -165 l0 -75 -36 0 -37 0 7 46 c3 26 6 60 6 75 0 26 4 29
30 29 l30 0 0 -75z m-20662 38 c-10 -2 -26 -2 -35 0 -10 3 -2 5 17 5 19 0 27
-2 18 -5z m0 -120 c-10 -2 -26 -2 -35 0 -10 3 -2 5 17 5 19 0 27 -2 18 -5z
m1702 -23 c0 -5 -16 -10 -35 -10 -19 0 -35 5 -35 10 0 6 16 10 35 10 19 0 35
-4 35 -10z m18950 -45 c0 -21 -5 -25 -30 -25 -25 0 -30 4 -30 25 0 21 5 25 30
25 25 0 30 -4 30 -25z m-20630 -100 c0 -10 -10 -15 -30 -15 -20 0 -30 5 -30
15 0 10 10 15 30 15 20 0 30 -5 30 -15z m20625 -10 c0 -5 -15 -11 -32 -13 -25
-3 -33 1 -33 13 0 12 8 16 33 13 17 -2 32 -7 32 -13z m-18937 -37 c-5 -15 -58
-24 -58 -10 0 15 12 22 38 22 14 0 22 -5 20 -12z m18932 -34 c0 -11 -5 -14
-16 -10 -9 3 -24 6 -35 6 -10 0 -19 5 -19 10 0 6 16 10 35 10 25 0 35 -4 35
-16z m-20610 -4 c0 -12 -45 -24 -60 -15 -5 3 -8 11 -5 16 8 12 65 12 65 -1z
m20598 -50 c7 0 10 -4 7 -10 -11 -17 -65 -12 -65 6 0 12 6 15 23 10 12 -3 28
-6 35 -6z m-20588 -35 c0 -10 -11 -15 -35 -15 -56 0 -41 25 18 29 9 0 17 -6
17 -14z m1680 -35 c0 -5 -6 -10 -14 -10 -8 0 -21 -3 -30 -6 -11 -4 -16 -1 -16
10 0 11 9 16 30 16 17 0 30 -4 30 -10z m18910 -5 c0 -15 -26 -20 -54 -9 -28
11 -17 24 19 24 24 0 35 -5 35 -15z m-20590 -50 c0 -10 -10 -15 -30 -15 -20 0
-30 5 -30 15 0 10 10 15 30 15 20 0 30 -5 30 -15z m1690 -10 c0 -10 -11 -15
-35 -15 -39 0 -48 16 -12 23 41 8 47 7 47 -8z m0 -65 c0 -11 -48 -25 -56 -17
-4 3 -3 10 1 16 8 14 55 14 55 1z m-1682 -12 c-7 -20 -58 -23 -58 -4 0 11 10
16 31 16 20 0 29 -4 27 -12z m20562 -21 c0 -9 -10 -12 -30 -9 -16 2 -30 8 -30
13 0 5 14 9 30 9 18 0 30 -5 30 -13z m-18870 -32 c0 -10 -10 -15 -30 -15 -38
0 -39 17 -2 23 15 2 28 5 30 6 1 0 2 -6 2 -14z m-1680 -29 c0 -7 -12 -16 -27
-19 -35 -6 -52 15 -20 25 36 10 47 9 47 -6z m1698 -83 c3 -20 -1 -23 -27 -23
-33 0 -46 13 -37 36 9 25 60 14 64 -13z m-1688 -3 c0 -16 -7 -20 -35 -20 -28
0 -35 4 -35 20 0 16 7 20 35 20 28 0 35 -4 35 -20z m20518 -47 c2 -8 -5 -13
-16 -13 -30 0 -53 11 -46 22 8 13 57 6 62 -9z m-18813 -94 c4 -38 6 -72 4 -73
-2 -2 -16 -6 -30 -9 -26 -7 -27 -5 -33 51 -4 31 -9 65 -12 74 -3 10 2 18 13
21 48 13 51 10 58 -64z m-1695 42 c0 -22 -47 -38 -63 -22 -18 18 1 41 33 41
23 0 30 -5 30 -19z m20490 -87 c0 -13 -5 -58 -11 -100 l-12 -76 -30 6 c-17 3
-31 7 -32 9 -2 1 4 45 12 98 l15 95 29 -4 c23 -3 29 -9 29 -28z m-20476 -50
c3 -9 6 -29 6 -45 0 -25 -4 -29 -29 -29 -30 0 -41 14 -41 55 0 17 7 25 23 28
12 2 25 5 28 6 4 0 10 -6 13 -15z m1699 -41 c3 -10 15 -78 28 -151 19 -114 20
-135 8 -143 -35 -22 -46 -10 -59 59 -6 37 -18 99 -26 139 -18 95 -18 101 9
106 12 2 25 5 29 6 4 0 9 -7 11 -16z m-1670 -163 c9 -67 5 -80 -27 -80 -27 0
-28 3 -41 84 -7 42 5 58 40 54 16 -2 21 -14 28 -58z m20383 -26 c19 -5 21 -10
14 -42 -4 -21 -11 -53 -14 -73 -6 -33 -9 -35 -36 -31 -34 5 -35 12 -19 95 12
57 16 61 55 51z m-20351 -186 c3 -18 9 -55 14 -83 11 -59 8 -65 -28 -65 -28 0
-29 2 -40 75 -15 105 -15 105 19 105 25 0 30 -4 35 -32z m20311 -38 c15 0 18
-29 8 -67 -5 -17 -14 -23 -33 -23 -38 0 -40 4 -28 56 8 32 15 43 25 39 7 -3
20 -5 28 -5z m-18606 -10 c-8 -5 -26 -9 -40 -9 -23 0 -23 1 -5 9 11 5 29 9 40
9 17 1 17 -1 5 -9z m30 -130 c-8 -5 -26 -9 -40 -9 -23 0 -23 1 -5 9 11 5 29 9
40 9 17 1 17 -1 5 -9z m18536 -60 c15 0 18 -18 6 -37 -11 -17 -62 -4 -62 16 0
23 11 33 28 26 7 -3 20 -5 28 -5z m-20226 -9 c0 -12 -48 -23 -62 -15 -8 5 -5
10 8 15 27 11 54 11 54 0z m1720 -61 c-8 -5 -26 -9 -40 -9 -23 0 -23 1 -5 9
11 5 29 9 40 9 17 1 17 -1 5 -9z m18468 -36 c15 -4 22 -14 22 -30 0 -21 -3
-24 -27 -18 -39 10 -42 12 -36 34 6 22 8 23 41 14z m-20158 -83 c0 -8 -52 -23
-59 -16 -1 2 0 8 4 14 8 13 55 15 55 2z m1720 -11 c-8 -5 -26 -9 -40 -9 -23 0
-23 1 -5 9 11 5 29 9 40 9 17 1 17 -1 5 -9z m18438 -23 c3 -13 -2 -14 -25 -8
-15 4 -29 15 -31 24 -3 13 2 14 25 8 15 -4 29 -15 31 -24z m-34 -73 c9 -3 16
-13 16 -21 0 -10 -6 -13 -16 -9 -9 3 -22 6 -30 6 -8 0 -14 7 -14 15 0 16 17
19 44 9z m-20090 -33 c6 -9 -54 -24 -63 -16 -7 8 20 25 41 25 9 0 19 -4 22 -9z
m1736 -46 c0 -8 -6 -15 -14 -15 -8 0 -21 -3 -30 -6 -10 -4 -16 -1 -16 9 0 16
14 25 43 26 9 1 17 -6 17 -14z m-1720 -14 c0 -10 -51 -22 -64 -14 -4 3 -2 9 5
14 18 11 59 11 59 0z m20052 1 c10 -4 14 -12 10 -19 -10 -15 -62 -4 -62 13 0
15 23 17 52 6z m-16201 -39 c13 -16 12 -17 -3 -4 -10 7 -18 15 -18 17 0 8 8 3
21 -13z m-3841 -22 c0 -8 -52 -23 -59 -16 -1 2 0 8 4 14 8 13 55 15 55 2z
m1740 -16 c0 -8 -9 -16 -20 -16 -11 -1 -25 -2 -32 -3 -19 -2 -20 22 -1 27 36
9 53 7 53 -8z m2130 -17 c0 -5 -7 -3 -15 6 -8 8 -15 18 -15 22 0 3 7 1 15 -6
8 -7 15 -17 15 -22z m16138 6 c12 -4 22 -13 22 -21 0 -12 -7 -14 -32 -9 -37 7
-42 11 -33 25 7 13 12 13 43 5z m-19998 -33 c0 -8 -52 -23 -59 -16 -1 2 0 8 4
14 8 13 55 15 55 2z m3847 3 c-3 -3 -12 -4 -19 -1 -8 3 -5 6 6 6 11 1 17 -2
13 -5z m-2097 -48 c0 -14 -21 -26 -46 -26 -20 0 -17 28 4 33 32 9 42 7 42 -7z
m18218 -12 c24 -7 31 -34 8 -34 -25 0 -46 12 -46 26 0 16 5 16 38 8z m-19940
-37 c5 -22 -47 -44 -60 -25 -14 22 -9 36 15 41 32 6 42 3 45 -16z m1752 -41
c0 -14 -21 -26 -46 -26 -20 0 -17 28 4 33 32 9 42 7 42 -7z m18165 -16 c28
-11 26 -30 -3 -30 -25 0 -46 16 -38 29 9 13 8 13 41 1z m-19883 -76 l16 -65
-26 -10 c-32 -12 -37 -7 -55 64 -12 43 -12 59 -4 62 7 2 19 6 27 8 8 3 18 6
21 6 3 1 12 -29 21 -65z m1741 2 c6 -15 -12 -26 -44 -26 -26 0 -24 19 4 30 31
12 34 12 40 -4z m33 -87 c3 -6 0 -15 -7 -20 -19 -12 -59 -11 -59 1 0 6 10 15
23 20 30 12 35 12 43 -1z m18050 -19 c15 -6 24 -13 22 -16 -8 -8 -58 7 -58 17
0 11 3 11 36 -1z m-19756 -142 c21 -73 35 -136 31 -140 -3 -3 -17 -8 -31 -10
-23 -3 -26 3 -62 127 -21 72 -38 133 -38 137 0 7 53 27 59 22 2 -2 20 -63 41
-136z m1730 88 c0 -2 3 -11 6 -19 3 -10 -5 -18 -25 -25 -16 -6 -32 -8 -35 -5
-11 11 -6 41 7 46 15 7 47 8 47 3z m17988 -72 c12 -4 22 -11 22 -16 0 -10 -39
-1 -54 13 -12 11 -1 11 32 3z m-17948 -54 c0 -25 -48 -39 -61 -19 -14 22 -11
27 19 37 33 11 42 7 42 -18z m17901 -75 c19 -8 27 -14 19 -14 -26 -1 -60 11
-60 20 0 12 2 12 41 -6z m-17846 -81 c20 -48 20 -50 -14 -62 -29 -10 -30 -9
-44 33 -14 41 -14 43 6 53 33 16 36 15 52 -24z m17820 -56 c7 -7 2 -8 -15 -3
-14 4 -29 12 -35 17 -7 7 -2 8 15 3 14 -4 30 -12 35 -17z m-19575 -2 c0 -2
-13 -9 -30 -15 -16 -5 -30 -6 -30 -1 0 5 8 11 18 13 24 7 42 8 42 3z m1833
-143 l25 -62 -31 -10 c-16 -6 -31 -10 -32 -9 -1 2 -13 32 -28 68 l-25 65 26
12 c15 6 30 8 34 5 3 -4 17 -35 31 -69z m17697 19 c0 -4 -25 -71 -56 -148
l-57 -142 -26 11 c-14 6 -28 12 -30 14 -2 1 23 67 54 146 l58 145 28 -10 c16
-5 29 -13 29 -16z m-19491 4 c-2 -2 -18 -7 -34 -10 l-30 -6 30 14 c26 12 46
14 34 2z m41 -111 c0 -8 -52 -26 -58 -20 -3 2 6 9 19 14 28 11 39 13 39 6z
m1855 -165 c21 -50 36 -93 33 -96 -3 -3 -18 -6 -32 -7 -24 -2 -30 5 -61 77
-19 44 -35 82 -35 86 0 6 37 28 51 29 4 1 23 -40 44 -89z m-1815 46 c0 -2 -13
-9 -30 -15 -16 -5 -30 -6 -30 -1 0 5 8 11 18 13 24 7 42 8 42 3z m19260 -96
c18 -10 18 -12 -7 -68 -14 -31 -29 -61 -33 -65 -8 -9 -62 13 -58 23 2 3 14 31
27 63 25 57 37 65 71 47z m-19205 -59 c6 -11 -26 -31 -49 -31 -24 0 -19 19 7
30 29 12 35 12 42 1z m32 -88 c3 -9 -26 -22 -54 -24 -19 -1 -12 22 9 30 27 11
40 9 45 -6z m1817 -2 c7 -11 -52 -36 -62 -27 -8 9 26 36 44 36 7 0 15 -4 18
-9z m17261 -33 c26 -12 29 -17 19 -41 -4 -12 -11 -13 -35 -5 -30 10 -33 16
-23 42 7 19 6 19 39 4z m-19045 -48 c0 -10 -56 -30 -64 -23 -12 12 -5 22 22
31 28 10 42 7 42 -8z m19006 -64 c10 -8 16 -18 12 -22 -10 -9 -58 12 -58 26 0
14 23 12 46 -4z m-18976 -15 c0 -11 -50 -32 -61 -26 -16 10 -10 21 19 31 28
11 42 9 42 -5z m1830 -14 c0 -17 -47 -40 -55 -27 -3 5 7 16 22 24 35 19 33 19
33 3z m17114 -28 c14 -7 22 -17 19 -25 -4 -11 -10 -11 -34 2 -16 8 -27 19 -24
24 8 12 9 12 39 -1z m-18914 -39 c0 -9 -40 -30 -56 -30 -10 0 -3 29 9 33 22 9
47 7 47 -3z m18889 -24 c17 -9 20 -15 11 -21 -13 -8 -60 13 -60 27 0 12 21 9
49 -6z m-17036 -74 c-17 -9 -29 -10 -35 -4 -7 7 -1 15 18 25 21 11 31 12 36 4
4 -7 -3 -17 -19 -25z m-1819 19 c5 -8 -35 -31 -54 -31 -17 0 -11 28 8 33 29 8
41 7 46 -2z m18825 -5 c17 -9 20 -15 11 -21 -13 -8 -60 13 -60 27 0 12 21 9
49 -6z m-16968 -68 c-26 -20 -37 -22 -46 -8 -7 11 46 41 59 32 5 -3 -1 -13
-13 -24z m-1839 -26 c-21 -16 -46 -11 -50 10 -4 23 50 41 59 19 4 -9 0 -21 -9
-29z m1883 -12 c3 -5 -8 -16 -24 -25 -38 -19 -52 -1 -14 19 34 19 31 18 38 6z
m16851 -34 c10 -8 16 -18 12 -22 -10 -9 -58 12 -58 26 0 14 23 12 46 -4z
m-18682 -22 c7 -19 8 -17 -22 -33 -12 -7 -27 -9 -32 -6 -18 11 -11 35 13 45
31 12 34 12 41 -6z m1861 -4 c7 -11 -49 -42 -59 -32 -4 3 3 14 16 24 26 20 34
22 43 8z m45 -84 c0 -2 3 -11 6 -20 4 -9 -4 -20 -24 -30 -28 -14 -30 -14 -40
8 -9 20 -7 25 11 34 23 11 47 15 47 8z m-1841 -65 l20 -39 -30 -12 c-34 -15
-32 -16 -52 32 -17 39 -18 37 40 57 2 1 12 -17 22 -38z m18516 7 c14 -6 25
-17 25 -25 0 -11 -6 -11 -30 2 -16 9 -30 20 -30 25 0 13 4 13 35 -2z m-16597
-84 c17 -31 32 -59 32 -63 0 -4 -11 -14 -25 -21 -29 -15 -33 -12 -75 67 -23
44 -24 46 -5 59 30 22 38 17 73 -42z m16541 -31 l21 -18 -47 -82 c-27 -46 -51
-83 -54 -83 -4 0 -16 8 -28 18 l-21 17 46 83 c25 45 49 82 53 82 5 0 18 -8 30
-17z m-18381 -59 c26 -55 27 -56 8 -70 -32 -23 -40 -17 -70 43 -26 54 -27 58
-10 70 31 22 43 15 72 -43z m1982 -157 c39 -64 70 -122 70 -127 0 -11 -47 -36
-54 -29 -7 6 -121 201 -140 236 -16 32 -16 32 11 47 22 12 30 12 36 3 4 -7 39
-65 77 -130z m-1869 -78 c22 -45 39 -82 37 -84 -7 -6 -47 -25 -52 -25 -7 0
-89 161 -84 164 3 2 52 24 55 25 2 1 21 -35 44 -80z m18115 27 c18 -14 18 -16
1 -48 -10 -19 -28 -47 -41 -62 -20 -26 -24 -27 -44 -15 -12 8 -22 18 -22 24 0
14 69 115 78 115 5 0 17 -6 28 -14z m-16096 -184 c0 -4 -13 -16 -30 -25 -35
-21 -41 -7 -7 16 25 18 37 21 37 9z m15973 -6 c22 -17 22 -19 -5 -60 -22 -34
-23 -34 -50 -18 l-27 16 21 38 c23 41 33 45 61 24z m-17903 -16 c0 -10 -32
-30 -49 -30 -19 0 -12 17 12 28 28 14 37 14 37 2z m1980 -110 c-27 -21 -40
-25 -40 -12 0 10 53 42 60 36 2 -3 -6 -14 -20 -24z m15826 -61 c3 -6 0 -17 -8
-25 -13 -13 -18 -12 -38 4 -21 17 -22 22 -11 36 14 16 42 9 57 -15z m-17722
12 c5 -8 -35 -31 -54 -31 -18 0 -10 17 13 28 28 13 35 14 41 3z m1967 -62
c-13 -10 -28 -19 -35 -19 -6 1 2 12 19 25 16 13 32 22 35 19 3 -3 -6 -14 -19
-25z m15677 -27 c20 -15 21 -20 9 -36 -13 -18 -15 -18 -40 -1 -22 14 -24 19
-14 36 14 23 16 23 45 1z m-17578 -35 c0 -17 -47 -40 -55 -27 -3 5 7 16 22 24
35 19 33 19 33 3z m1981 -48 c-24 -20 -41 -24 -41 -11 0 10 53 42 60 35 3 -2
-6 -13 -19 -24z m15539 3 c32 -26 18 -48 -16 -26 -23 16 -33 44 -15 44 5 0 19
-8 31 -18z m-17486 -11 c5 -8 -35 -31 -54 -31 -18 0 -10 17 13 28 28 13 35 14
41 3z m31 -51 c7 -11 -49 -42 -59 -32 -4 3 3 14 16 24 26 20 34 22 43 8z
m17404 -16 c15 -11 19 -20 12 -27 -12 -12 -65 19 -56 33 9 14 17 12 44 -6z
m-17379 -37 c0 -16 -38 -39 -51 -31 -6 4 1 14 18 25 33 22 33 22 33 6z m2020
-20 c0 -7 -11 -20 -24 -29 -20 -15 -26 -15 -35 -4 -9 11 -6 19 15 35 26 21 44
20 44 -2z m15320 -39 c1 -18 -24 -18 -42 0 -28 28 -14 47 17 25 14 -10 25 -21
25 -25z m-17286 -24 c8 -21 9 -20 -20 -39 -22 -14 -28 -15 -35 -4 -14 23 -10
35 14 47 30 15 34 14 41 -4z m1999 -40 c-29 -23 -43 -23 -43 1 0 23 41 47 57
33 12 -9 9 -15 -14 -34z m15212 8 c34 -27 17 -50 -19 -27 -27 18 -31 27 -19
38 9 10 12 9 38 -11z m-17131 -104 l27 -47 -29 -15 -30 -15 -35 58 -34 58 26
16 c30 19 35 15 75 -55z m1981 25 c-22 -19 -30 -21 -42 -12 -12 11 -10 16 14
35 21 17 31 20 42 11 11 -9 8 -15 -14 -34z m15099 -2 c12 -13 14 -21 6 -26
-14 -9 -63 23 -55 35 10 16 30 12 49 -9z m-15029 -42 c8 -12 -23 -49 -41 -49
-24 0 -25 21 -2 40 27 22 34 24 43 9z m14965 -29 c20 -15 22 -22 13 -31 -10
-10 -17 -9 -33 6 -20 18 -27 45 -12 45 4 0 18 -9 32 -20z m-16886 -159 l66
-105 -27 -17 c-31 -21 -20 -33 -120 125 l-56 88 24 19 c30 22 27 25 113 -110z
m1986 105 c0 -8 -12 -21 -26 -31 -22 -14 -28 -15 -35 -4 -6 10 -1 21 17 37 26
23 44 22 44 -2z m55 -67 c8 -12 -23 -49 -41 -49 -25 0 -27 23 -3 41 28 22 35
23 44 8z m14727 -26 c10 -9 18 -20 18 -25 0 -11 -49 24 -50 35 0 12 12 8 32
-10z m-14668 -45 c8 -13 4 -21 -15 -37 -30 -26 -36 -26 -49 -1 -9 17 -7 24 12
40 26 22 37 21 52 -2z m14586 -63 c13 -14 19 -25 13 -25 -5 0 -20 11 -33 25
-13 14 -19 25 -13 25 5 0 20 -11 33 -25z m-14529 -61 c-26 -23 -26 -23 -46 -3
-20 19 -20 19 10 44 l30 24 16 -21 c16 -20 15 -22 -10 -44z m14454 -62 c-7 -7
-45 29 -45 41 0 6 11 0 25 -13 14 -13 23 -26 20 -28z m-14319 -91 l-27 -26
-34 40 -34 40 27 22 27 22 34 -35 33 -36 -26 -27z m14234 -3 c0 -5 -3 -8 -7
-8 -10 0 -43 32 -43 42 0 11 49 -24 50 -34z m-92 -104 c-2 -7 -50 -60 -107
-119 l-103 -106 -24 22 -23 22 106 112 c105 111 107 113 130 98 13 -9 23 -22
21 -29z m2130 26 l23 -19 -71 -101 c-40 -55 -76 -102 -81 -105 -4 -3 -19 1
-33 10 l-25 16 77 109 c42 60 79 109 82 109 3 0 15 -8 28 -19z m-13291 -73 c4
-7 0 -7 -10 2 -9 7 -17 10 -17 5 0 -4 -9 2 -20 14 -11 12 -20 24 -20 27 0 9
58 -33 67 -48z m-2655 -143 l68 -70 -28 -27 -28 -27 -68 76 c-70 77 -72 86
-31 116 14 10 11 12 87 -68z m15767 -33 l23 -18 -37 -51 c-20 -29 -40 -52 -43
-52 -4 0 -17 8 -30 18 l-22 17 37 52 c21 29 40 52 43 52 3 1 16 -8 29 -18z
m-2211 -14 l22 -23 -56 -54 -55 -55 -20 24 -19 23 48 54 c26 29 50 53 53 53 3
1 15 -9 27 -22z m-13419 -134 c-24 -25 -49 -31 -49 -11 0 6 10 22 22 35 16 18
24 20 35 11 11 -9 10 -15 -8 -35z m13278 -50 c-16 -16 -18 -15 -42 7 -24 22
-24 24 -8 42 16 18 18 18 42 -7 24 -23 24 -26 8 -42z m2246 49 c14 -15 15 -21
4 -35 -11 -15 -14 -15 -36 2 -16 12 -22 24 -18 35 8 21 30 20 50 -2z m-16240
-61 c9 -8 17 -19 17 -26 0 -6 -48 -49 -106 -94 l-106 -83 -21 21 -22 22 55 47
c103 89 121 107 123 128 1 19 4 20 22 10 11 -6 28 -17 38 -25z m16182 -32 c12
-19 -4 -22 -30 -5 -29 19 -25 42 5 26 10 -6 22 -15 25 -21z m-2281 2 c24 -27
11 -48 -15 -25 -19 17 -26 44 -11 44 5 0 17 -9 26 -19z m-13028 -12 c10 -17
-43 -66 -57 -52 -8 8 -6 18 7 37 20 27 39 33 50 15z m12994 -60 c0 -15 -16
-10 -34 10 -10 11 -15 25 -10 32 5 9 12 6 26 -10 10 -13 18 -27 18 -32z m2269
32 c13 -10 19 -21 14 -24 -11 -7 -53 19 -53 34 0 14 12 11 39 -10z m-25 -73
c-4 -5 -17 0 -30 13 -13 12 -21 26 -18 31 4 5 17 0 30 -13 13 -12 21 -26 18
-31z m-2305 18 c15 -16 19 -26 11 -31 -6 -3 -19 4 -30 17 -35 42 -19 54 19 14z
m-12819 -30 c0 -7 -11 -23 -25 -36 -19 -18 -28 -21 -37 -12 -9 9 -5 19 17 42
28 29 45 31 45 6z m15085 -17 c12 -19 -3 -21 -29 -4 -29 19 -26 41 4 25 10 -6
22 -15 25 -21z m-2313 4 c21 -18 23 -33 6 -33 -14 0 -48 30 -48 42 0 13 22 9
42 -9z m-12726 -24 c3 -6 -5 -23 -20 -37 -20 -20 -28 -24 -38 -14 -9 9 -6 17
12 37 26 28 35 31 46 14z m51 -45 c8 -22 -36 -67 -53 -53 -11 9 -9 17 8 40 24
33 36 36 45 13z m12557 -36 c22 -31 8 -43 -20 -17 -13 12 -21 26 -18 30 9 15
22 10 38 -13z m2331 2 c10 -11 16 -23 12 -26 -8 -9 -58 27 -51 37 8 14 19 11
39 -11z m-14839 -11 c3 -6 -5 -23 -20 -37 -20 -20 -28 -24 -38 -14 -9 9 -6 17
12 37 26 28 35 31 46 14z m12358 -118 c10 -11 15 -25 11 -32 -6 -8 -13 -5 -26
12 -31 40 -18 56 15 20z m2385 -18 c1 -1 0 -7 -4 -13 -5 -8 -15 -5 -31 11 -29
27 -20 47 9 22 12 -10 24 -19 26 -20z m-2487 -60 c10 -9 18 -21 18 -27 -1 -6
-33 -37 -73 -68 l-72 -57 -22 25 -23 25 73 59 c39 32 74 59 76 59 3 1 13 -6
23 -16z m2390 -10 c10 -9 18 -21 18 -27 -1 -6 -25 -38 -55 -71 l-54 -60 -25
24 -25 24 57 63 c31 35 59 63 61 64 3 0 13 -7 23 -17z m-2626 -189 c16 -24 16
-26 -2 -38 -10 -8 -37 -28 -59 -45 l-39 -32 -18 23 c-10 13 -17 26 -15 30 3 9
100 87 109 88 4 0 15 -11 24 -26z m2421 -91 l-47 -48 -21 22 -22 21 44 51 44
51 25 -25 25 -25 -48 -47z m-2600 -50 c13 -20 12 -23 -24 -47 l-38 -26 -17 22
c-24 31 -23 33 15 57 37 24 45 23 64 -6z m2503 -46 c0 -15 -41 -57 -55 -57 -7
0 -20 8 -29 19 -16 17 -15 20 9 50 25 29 27 30 51 15 13 -9 24 -21 24 -27z
m-2674 -62 c13 -20 14 -28 4 -40 -17 -21 -25 -19 -45 11 -16 24 -16 26 2 40
23 17 20 18 39 -11z m2539 -84 c-13 -14 -17 -13 -37 6 -18 19 -19 24 -8 38 12
14 15 13 37 -7 21 -20 22 -23 8 -37z m-2629 14 c16 -24 16 -27 -2 -39 -17 -13
-21 -11 -36 12 -12 19 -14 30 -6 39 15 19 25 16 44 -12z m-69 -79 c-6 -20 -24
-16 -36 8 -19 35 -3 55 20 25 10 -13 17 -28 16 -33z m2618 24 c15 -16 16 -22
5 -35 -12 -14 -16 -13 -36 6 -18 17 -21 25 -13 36 15 18 23 17 44 -7z m-2698
-74 c-6 -20 -24 -16 -36 8 -19 35 -3 55 20 25 10 -13 17 -28 16 -33z m2637 15
c27 -30 9 -47 -20 -20 -13 12 -21 26 -18 30 8 14 19 11 38 -10z m-2726 -42
c19 -30 -2 -51 -23 -23 -8 10 -15 25 -15 32 0 19 24 14 38 -9z m2666 -18 c27
-30 9 -47 -20 -20 -13 12 -21 26 -18 30 8 14 19 11 38 -10z m-2746 -32 c19
-30 -2 -51 -23 -23 -8 10 -15 25 -15 32 0 19 24 14 38 -9z m2702 -51 c0 -15
-27 -8 -44 11 -27 30 -9 47 20 20 13 -12 24 -26 24 -31z m-2786 0 c20 -28 20
-38 1 -38 -14 0 -35 29 -35 49 0 18 18 12 34 -11z m2716 -62 c-13 -13 -55 27
-45 44 5 8 14 5 31 -11 17 -16 21 -26 14 -33z m-2796 12 c21 -30 2 -52 -20
-24 -16 23 -19 46 -5 46 6 0 17 -10 25 -22z m2736 -72 c-13 -13 -55 27 -45 44
5 8 14 5 31 -11 17 -16 21 -26 14 -33z m-2901 -22 c17 -38 6 -42 -14 -5 -8 17
-12 31 -7 31 5 0 14 -12 21 -26z m2830 -8 c15 -16 19 -26 11 -31 -13 -8 -50
22 -50 42 0 20 14 16 39 -11z m-2936 -86 c-6 -6 -33 30 -33 44 0 6 9 0 20 -14
10 -14 16 -27 13 -30z m2822 -48 c-7 -7 -45 29 -45 41 0 6 11 0 25 -13 14 -13
23 -26 20 -28z m-2935 -16 c0 -6 -9 0 -20 14 -26 33 -25 52 0 21 11 -13 20
-28 20 -35z m-11832 -27 c-14 -19 -25 -26 -32 -19 -6 6 -2 18 14 35 31 33 45
21 18 -16z m11701 -5 c17 -38 6 -42 -14 -5 -8 17 -12 31 -7 31 5 0 14 -12 21
-26z m2965 -11 c12 -16 14 -24 6 -21 -16 5 -46 48 -34 48 5 0 18 -12 28 -27z
m-3085 -50 c7 -14 8 -30 4 -34 -10 -9 -172 -90 -227 -113 -29 -12 -42 -13 -52
-5 -33 27 -14 44 119 110 72 36 135 66 138 67 3 1 11 -10 18 -25z m-11484 -13
c-10 -11 -23 -20 -28 -20 -6 0 0 11 13 25 27 29 42 25 15 -5z m14479 -15 c9
-14 12 -25 7 -25 -5 0 -16 11 -25 25 -9 14 -12 25 -7 25 5 0 16 -11 25 -25z
m-14378 -70 c-9 -14 -21 -25 -27 -25 -11 0 -4 15 19 43 22 25 28 12 8 -18z
m14294 -23 c0 -9 -7 -6 -20 11 -11 14 -20 29 -20 33 0 4 9 -1 20 -11 11 -10
20 -25 20 -33z m-3232 -37 c11 -24 9 -26 -53 -57 -67 -33 -77 -32 -89 8 -6 18
2 25 51 47 73 32 77 32 91 2z m-10948 -3 c0 -12 -39 -46 -45 -41 -6 7 24 49
36 49 5 0 9 -4 9 -8z m14090 -35 c0 -6 -9 -2 -20 8 -11 10 -20 23 -20 28 0 6
9 2 20 -8 11 -10 20 -23 20 -28z m-10800 -14 c-1 -32 -24 -63 -39 -53 -12 7
-12 13 -1 39 13 33 40 42 40 14z m7470 -29 c12 -30 6 -44 -20 -44 -23 0 -37
49 -18 61 21 14 28 11 38 -17z m-10660 -1 c0 -10 -32 -43 -42 -43 -5 0 -1 11
8 25 15 23 34 33 34 18z m3365 -62 c-8 -34 -22 -48 -35 -35 -15 15 10 73 28
67 9 -4 11 -14 7 -32z m7186 13 c5 -15 7 -30 3 -33 -7 -7 -34 28 -34 46 0 23
20 14 31 -13z m-62 -24 c8 -24 7 -30 -3 -30 -14 0 -26 21 -26 46 0 25 18 15
29 -16z m-65 -16 c8 -22 8 -44 -2 -44 -4 0 -13 14 -19 30 -9 24 -9 30 2 30 7
0 16 -7 19 -16z m-6910 -3 c7 -10 -16 -71 -27 -71 -14 0 -18 26 -8 53 10 27
25 35 35 18z m-3370 -10 c3 -5 -4 -21 -15 -36 -28 -35 -50 -18 -25 19 17 27
31 33 40 17z m10220 -13 c12 -46 -3 -54 -22 -13 -15 33 -15 35 2 35 7 0 16
-10 20 -22z m-6784 -8 c0 -20 -24 -60 -37 -60 -16 0 -16 10 -3 44 9 25 40 37
40 16z m56 -24 c8 -21 -19 -67 -34 -57 -9 6 -10 15 -1 39 12 34 26 41 35 18z
m-3422 -15 c3 -5 -3 -20 -13 -32 -26 -32 -48 -14 -25 19 16 23 29 28 38 13z
m10005 -21 c8 -24 7 -30 -5 -30 -7 0 -14 3 -14 8 0 4 -3 17 -6 30 -9 33 12 27
25 -8z m-6524 -7 c-8 -34 -20 -47 -34 -39 -15 9 7 66 26 66 12 0 14 -7 8 -27z
m113 -12 c12 -7 6 -34 -14 -69 -1 -1 -13 2 -27 7 -24 9 -25 13 -16 41 11 30
31 38 57 21z m-3532 -45 c-10 -16 -22 -23 -31 -20 -15 6 -13 17 13 47 24 27
39 4 18 -27z m9754 13 c7 -11 9 -28 5 -37 -5 -15 -7 -15 -14 -2 -5 8 -12 25
-15 38 -9 28 9 29 24 1z m-6094 -9 c32 -11 62 -24 67 -29 7 -7 -4 -42 -18 -59
-3 -3 -145 38 -145 42 0 13 24 66 29 66 5 0 34 -9 67 -20z m5975 -37 c5 -14 6
-29 2 -33 -12 -11 -174 -63 -179 -57 -3 2 -6 17 -7 31 -2 25 4 29 78 56 44 16
83 29 88 29 4 1 12 -11 18 -26z m-9548 11 c9 -9 -23 -54 -39 -54 -19 0 -18 19
3 42 17 19 26 22 36 12z m3852 -63 c71 -21 131 -43 132 -48 2 -6 -1 -22 -6
-36 l-10 -25 -146 42 c-80 24 -148 46 -151 49 -3 3 -3 20 1 37 6 26 11 31 28
26 12 -4 80 -24 152 -45z m-3778 3 c5 -18 -31 -54 -46 -45 -11 7 -10 13 5 35
19 25 35 29 41 10z m9177 -30 c15 -40 7 -50 -60 -67 -37 -10 -68 -17 -69 -15
-2 2 -6 15 -10 30 -7 26 -4 28 57 46 79 25 75 25 82 6z m-9094 -23 c0 -3 -9
-17 -20 -31 -14 -19 -22 -22 -30 -14 -16 16 15 65 36 57 8 -3 14 -8 14 -12z
m3951 -64 c-16 -40 -31 -33 -18 8 6 20 14 32 19 27 5 -5 4 -20 -1 -35z m4927
11 c8 -32 7 -33 -32 -45 -45 -13 -53 -10 -58 26 -2 20 3 26 37 36 22 7 41 13
42 14 1 1 6 -14 11 -31z m-8818 12 c12 -7 12 -12 0 -34 -14 -28 -29 -33 -47
-15 -9 9 -8 18 4 35 17 26 21 28 43 14z m2264 -13 c14 -10 16 -25 14 -76 l-3
-63 -22 18 c-15 14 -23 36 -28 77 -7 61 2 71 39 44z m1755 -39 c-5 -18 -9 -34
-9 -36 0 -2 -4 -1 -9 3 -6 3 -6 17 1 35 14 41 29 38 17 -2z m4601 -2 c0 -8 3
-21 6 -30 5 -12 0 -16 -20 -16 -14 0 -26 3 -26 8 0 4 -3 17 -6 30 -5 19 -2 22
20 22 16 0 26 -6 26 -14z m-8530 -11 c10 -12 9 -20 -4 -41 -15 -22 -20 -23
-34 -12 -9 7 -18 13 -20 14 -6 4 30 54 38 54 4 0 13 -7 20 -15z m4060 -16
c-12 -40 -20 -49 -20 -21 0 26 10 52 20 52 5 0 5 -14 0 -31z m4362 -9 c4 -27
-6 -40 -32 -40 -13 0 -19 54 -7 62 23 15 35 8 39 -22z m-4230 -20 c-2 -17 -8
-33 -13 -36 -10 -6 -12 49 -2 59 14 14 19 6 15 -23z m4132 14 c10 -26 7 -56
-6 -52 -13 5 -29 53 -20 62 10 10 20 6 26 -10z m-90 -26 c9 -36 7 -48 -8 -48
-13 0 -29 48 -19 62 8 15 21 8 27 -14z m-3858 -30 c-3 -17 -8 -33 -10 -36 -10
-9 -26 11 -26 32 0 26 8 36 28 36 11 0 13 -8 8 -32z m3764 20 c0 -7 3 -23 6
-35 5 -17 2 -23 -10 -23 -17 0 -32 42 -21 59 9 15 25 14 25 -1z m-7977 -79
l-17 -28 -38 21 c-43 24 -44 29 -22 63 l16 24 39 -26 39 -25 -17 -29z m4307
45 c0 -14 -7 -27 -15 -31 -22 -8 -26 -1 -19 35 7 36 34 33 34 -4z m3578 -7 c2
-19 -1 -27 -12 -27 -11 0 -16 10 -16 31 0 38 24 35 28 -4z m-3487 11 c-1 -5
-1 -19 -1 -33 0 -16 -6 -25 -15 -25 -11 0 -15 11 -15 36 0 27 4 35 16 32 8 -2
15 -6 15 -10z m3393 -14 c10 -27 7 -44 -9 -44 -8 0 -15 6 -15 14 0 8 -3 21 -6
30 -4 10 -1 16 9 16 8 0 18 -7 21 -16z m-3299 -26 c-9 -41 -12 -45 -26 -31
-16 16 -2 63 17 63 12 0 14 -7 9 -32z m3205 13 c0 -11 3 -26 6 -35 4 -11 1
-16 -10 -16 -17 0 -32 42 -21 59 10 18 25 13 25 -8z m-3110 -27 c0 -14 -7 -27
-15 -31 -21 -8 -23 -3 -18 34 6 38 33 35 33 -3z m91 4 c-1 -5 -1 -19 -1 -33 0
-16 -6 -25 -15 -25 -11 0 -15 11 -15 36 0 27 4 35 16 32 8 -2 15 -6 15 -10z
m94 -9 c13 -19 -4 -59 -25 -59 -16 0 -20 7 -20 35 0 28 4 35 19 35 11 0 23 -5
26 -11z m2744 -39 c1 -13 0 -13 -9 0 -5 8 -9 24 -9 35 l0 20 9 -20 c5 -11 9
-27 9 -35z m-7319 -46 c0 -5 -6 -19 -14 -30 -14 -18 -16 -18 -48 -1 -19 10
-47 28 -62 41 -28 22 -29 23 -12 49 l18 26 59 -37 c32 -20 59 -42 59 -48z
m7182 56 c3 -16 1 -30 -4 -30 -4 0 -8 14 -8 30 0 17 2 30 4 30 2 0 6 -13 8
-30z m-2492 -10 c0 -25 -4 -30 -25 -30 -21 0 -25 5 -25 30 0 25 4 30 25 30 21
0 25 -5 25 -30z m200 -27 l0 -36 -47 7 c-25 3 -47 7 -49 9 -1 1 0 16 3 32 4
29 6 30 49 27 43 -4 44 -5 44 -39z m2160 17 c0 -16 -2 -30 -4 -30 -2 0 -6 14
-8 30 -3 17 -1 30 4 30 4 0 8 -13 8 -30z m-5220 -52 c0 -15 -3 -16 -25 -6 -19
8 -25 19 -25 41 l0 30 25 -23 c14 -13 25 -32 25 -42z m3231 52 l59 0 0 -36 0
-37 -61 7 c-34 3 -69 6 -78 6 -14 0 -16 7 -13 36 3 26 8 34 19 30 8 -3 41 -6
74 -6z m1858 -28 c0 -24 -1 -25 -9 -7 -12 28 -12 47 0 40 6 -3 10 -18 9 -33z
m-133 3 c3 -14 5 -27 3 -29 -6 -6 -87 -15 -206 -22 l-113 -7 0 31 0 30 78 7
c42 3 88 7 102 8 118 11 129 9 136 -18z m-1398 -1 c42 -5 49 -14 36 -48 -7
-18 -42 -20 -140 -10 l-60 6 4 32 4 32 56 -3 c32 -2 76 -6 100 -9z m162 -33
c0 -17 -4 -33 -10 -36 -6 -4 -10 8 -10 29 0 20 5 36 10 36 6 0 10 -13 10 -29z
m200 -12 c0 -19 -5 -29 -15 -29 -16 0 -18 12 -9 47 8 31 24 19 24 -18z m474
14 c7 -26 -5 -43 -30 -43 -14 0 -28 46 -19 60 13 20 43 10 49 -17z m204 -5 l3
-28 -75 0 -76 0 0 30 0 31 73 -3 c70 -3 72 -4 75 -30z m-523 2 c7 -21 0 -40
-16 -40 -5 0 -9 14 -9 30 0 34 15 40 25 10z m65 -10 c0 -16 -4 -30 -10 -30 -5
0 -10 14 -10 30 0 17 5 30 10 30 6 0 10 -13 10 -30z m70 -1 c0 -38 -24 -35
-28 4 -2 19 1 27 12 27 11 0 16 -10 16 -31z m60 1 c0 -16 -4 -30 -10 -30 -5 0
-10 14 -10 30 0 17 5 30 10 30 6 0 10 -13 10 -30z m-5917 -68 c42 -24 77 -46
77 -48 0 -3 -7 -18 -15 -34 l-15 -29 -84 51 -85 52 15 28 c8 16 18 28 22 26 4
-2 42 -23 85 -46z m172 -132 c-15 -29 -35 -40 -35 -19 0 20 21 49 36 49 13 0
13 -4 -1 -30z m159 -104 c-11 -18 -20 -24 -27 -17 -7 7 -4 19 7 37 12 17 21
23 28 16 7 -7 4 -19 -8 -36z m140 -67 c-14 -28 -34 -39 -34 -19 0 23 24 58 36
53 11 -4 11 -10 -2 -34z m55 -32 c-7 -15 -15 -27 -19 -27 -17 0 -18 15 -4 42
20 38 41 24 23 -15z m55 -31 c-10 -17 -20 -24 -26 -18 -6 6 -3 20 8 36 10 17
20 24 26 18 6 -6 3 -20 -8 -36z m69 8 c8 -9 -21 -64 -33 -64 -13 0 -13 13 2
45 11 25 19 30 31 19z m107 -59 c0 -12 -24 -55 -31 -55 -18 0 -39 13 -39 24 0
6 7 22 16 34 12 18 19 20 35 12 10 -6 19 -13 19 -15z m114 -55 l67 -30 -16
-29 c-13 -27 -18 -29 -40 -21 -36 14 -105 50 -105 55 0 6 23 55 26 55 1 0 32
-13 68 -30z m243 -112 c73 -33 133 -66 133 -72 -1 -6 -6 -20 -13 -32 -12 -21
-14 -20 -144 40 -72 34 -134 64 -138 67 -6 7 14 59 23 59 3 0 65 -28 139 -62z
m243 -148 c-7 -16 -16 -27 -21 -24 -5 3 -2 19 7 35 20 39 31 30 14 -11z m120
-50 c-7 -16 -16 -27 -21 -24 -5 3 -2 19 7 35 20 39 31 30 14 -11z m130 -20 c0
-18 -23 -59 -31 -55 -9 6 12 65 23 65 4 0 8 -4 8 -10z m120 -44 c0 -15 -21
-56 -29 -56 -5 0 -4 13 2 30 9 25 27 42 27 26z m170 -74 c0 -10 -6 -26 -13
-37 -18 -23 -32 -4 -23 31 7 28 36 33 36 6z m85 -39 c-8 -36 -17 -44 -33 -34
-10 6 -11 13 -1 34 17 37 43 36 34 0z m88 -9 c7 -8 -13 -64 -23 -64 -16 0 -20
18 -10 44 9 25 21 32 33 20z m83 -56 c-8 -38 -13 -45 -27 -31 -14 14 0 63 18
63 12 0 14 -7 9 -32z m94 -7 c0 -27 -21 -60 -34 -55 -11 4 -12 12 -4 35 9 27
38 42 38 20z m90 -25 c0 -20 -22 -56 -35 -56 -18 0 -18 1 -5 34 5 14 16 26 25
26 8 0 15 -2 15 -4z m73 -22 c12 -4 13 -11 5 -35 -17 -48 -56 -33 -44 17 7 25
14 28 39 18z m105 -33 c19 -12 5 -61 -18 -61 -26 0 -32 14 -20 44 10 28 17 31
38 17z m195 -86 c-3 -37 -5 -38 -52 -25 -41 11 -45 17 -35 56 5 20 8 21 47 9
37 -11 42 -16 40 -40z m157 -12 c61 -16 64 -21 54 -59 -6 -21 -7 -21 -67 -6
-75 18 -80 22 -71 56 7 31 7 31 84 9z m274 -69 c64 -15 76 -21 76 -39 0 -43
-10 -45 -108 -23 -90 21 -91 22 -85 47 8 37 13 43 28 37 8 -3 48 -13 89 -22z
m198 -69 c-4 -25 -19 -41 -28 -32 -3 2 -2 16 2 31 8 34 33 35 26 1z m188 -22
c-1 -25 -14 -53 -26 -53 -7 0 -11 7 -9 15 3 8 7 22 10 30 4 15 25 21 25 8z
m4366 -28 c4 -14 4 -28 2 -30 -11 -12 -273 -54 -281 -46 -5 5 -7 19 -5 32 3
22 12 26 113 45 152 30 163 30 171 -1z m-4220 -11 c-3 -9 -6 -22 -6 -30 0 -8
-6 -14 -13 -14 -9 0 -12 10 -9 30 3 18 10 30 19 30 10 0 13 -6 9 -16z m64 -11
c0 -23 -17 -49 -26 -41 -9 10 4 58 16 58 6 0 10 -8 10 -17z m62 -23 c-3 -18
-10 -30 -19 -30 -10 0 -13 6 -9 16 3 9 6 22 6 30 0 8 6 14 13 14 9 0 12 -10 9
-30z m64 -2 c-3 -13 -6 -29 -6 -36 0 -7 -4 -10 -10 -7 -11 7 -14 48 -3 58 14
15 25 6 19 -15z m98 6 c10 -4 16 -18 16 -35 0 -24 -4 -29 -25 -29 -26 0 -32
19 -19 54 7 18 7 18 28 10z m3604 -25 c3 -26 0 -27 -64 -38 -36 -7 -68 -11
-69 -9 -2 2 -5 17 -7 33 -3 27 0 30 32 36 19 4 51 6 70 5 30 -1 35 -5 38 -27z
m-3450 0 c58 -10 63 -13 58 -33 -3 -11 -6 -26 -6 -32 0 -8 -19 -8 -67 0 -69
12 -83 24 -69 62 6 17 4 17 84 3z m3261 -45 c1 -7 -10 -14 -24 -16 -19 -4 -25
-1 -25 13 0 9 -3 24 -6 32 -4 11 2 16 18 19 22 3 34 -13 37 -48z m-125 20 c9
-23 7 -54 -3 -54 -9 0 -21 33 -21 58 0 17 17 15 24 -4z m-2869 -9 c66 -8 123
-15 128 -15 4 0 7 -15 7 -33 l0 -33 -151 17 c-84 10 -153 20 -154 21 -2 2 -1
15 2 31 6 32 6 32 168 12z m2805 1 c0 -8 3 -21 6 -30 4 -11 1 -16 -10 -16 -11
0 -16 9 -16 30 0 17 5 30 10 30 6 0 10 -6 10 -14z m-60 -26 c0 -16 -4 -30 -10
-30 -5 0 -10 6 -10 14 0 8 -3 21 -6 30 -4 11 -1 16 10 16 11 0 16 -9 16 -30z
m-64 -5 c7 -29 1 -41 -15 -30 -14 8 -14 55 -1 55 5 0 12 -11 16 -25z m-154
-20 c3 -24 0 -35 -9 -35 -8 0 -13 13 -13 35 0 19 4 35 9 35 5 0 11 -16 13 -35z
m-2266 -43 c-12 -11 -17 7 -9 34 l8 29 3 -28 c2 -16 1 -31 -2 -35z m2075 51
c0 -5 2 -17 4 -27 5 -26 -5 -42 -16 -25 -12 19 -11 59 1 59 6 0 10 -3 11 -7z
m-1941 -33 c0 -16 -4 -30 -10 -30 -5 0 -8 10 -6 23 3 12 5 25 5 30 2 21 11 3
11 -23z m130 -5 c0 -19 -4 -35 -10 -35 -11 0 -13 30 -4 54 10 25 14 19 14 -19z
m1690 0 c0 -34 -1 -35 -42 -35 -24 0 -67 -3 -95 -6 l-53 -6 0 35 0 36 78 4
c42 1 85 4 95 5 13 2 17 -6 17 -33z m-1560 -2 c0 -10 -4 -25 -10 -33 -6 -10
-9 -5 -8 18 1 33 18 47 18 15z m180 -18 c0 -24 -5 -35 -15 -35 -15 0 -22 50
-8 63 15 15 23 5 23 -28z m1082 5 c3 -16 2 -32 0 -35 -3 -3 -36 -5 -74 -5
l-68 0 0 29 c0 32 2 33 96 39 39 3 42 1 46 -28z m-992 -10 c0 -20 -5 -30 -15
-30 -12 0 -14 7 -11 28 6 34 4 32 16 32 6 0 10 -13 10 -30z m98 3 c-4 -39 -28
-42 -28 -4 0 21 5 31 16 31 11 0 14 -8 12 -27z m92 -8 c0 -24 -5 -35 -15 -35
-10 0 -15 11 -15 35 0 24 5 35 15 35 10 0 15 -11 15 -35z m88 -3 c2 -24 -1
-32 -12 -32 -12 0 -16 10 -16 36 0 45 24 42 28 -4z m92 3 c0 -24 -5 -35 -15
-35 -10 0 -15 11 -15 35 0 24 5 35 15 35 10 0 15 -11 15 -35z m206 11 c7 -31
-1 -46 -27 -46 -14 0 -19 7 -19 28 0 48 35 61 46 18z m192 -7 c-3 -29 -6 -32
-45 -35 l-43 -4 0 35 c0 35 0 35 46 35 45 0 45 0 42 -31z m-303 11 c11 -18 -6
-50 -26 -50 -14 0 -19 7 -19 30 0 23 5 30 19 30 11 0 23 -5 26 -10z"/>
<path d="M18185 25949 c-17 -6 -11 -11 11 -8 4 0 10 -5 14 -11 5 -8 9 -7 13 5
4 9 3 14 -2 10 -5 -3 -11 -1 -13 4 -1 4 -12 5 -23 0z"/>
<path d="M21070 24410 c0 -5 5 -10 11 -10 5 0 7 5 4 10 -3 6 -8 10 -11 10 -2
0 -4 -4 -4 -10z"/>
<path d="M20516 24093 c-6 -14 -5 -15 5 -6 7 7 10 15 7 18 -3 3 -9 -2 -12 -12z"/>
<path d="M20866 24065 c4 -8 8 -15 10 -15 2 0 4 7 4 15 0 8 -4 15 -10 15 -5 0
-7 -7 -4 -15z"/>
<path d="M21740 23441 c0 -5 5 -13 10 -16 6 -3 10 -2 10 4 0 5 -4 13 -10 16
-5 3 -10 2 -10 -4z"/>
<path d="M21715 23421 c-3 -5 -1 -12 5 -16 5 -3 10 1 10 9 0 18 -6 21 -15 7z"/>
<path d="M19010 22741 c0 -6 4 -13 10 -16 6 -3 7 1 4 9 -7 18 -14 21 -14 7z"/>
<path d="M18796 21932 c-2 -4 4 -8 14 -8 10 0 16 4 14 8 -3 4 -9 8 -14 8 -5 0
-11 -4 -14 -8z"/>
<path d="M19130 21406 c0 -2 8 -10 18 -17 15 -13 16 -12 3 4 -13 16 -21 21
-21 13z"/>
<path d="M19531 21126 c2 -2 15 -9 29 -16 23 -12 24 -12 11 3 -7 10 -20 17
-29 17 -8 0 -13 -2 -11 -4z"/>
<path d="M22295 19243 c-30 -7 -43 -23 -18 -23 11 0 26 7 33 15 7 8 11 14 9
14 -2 -1 -13 -3 -24 -6z"/>
<path d="M6590 14291 c0 -11 5 -23 12 -27 6 -4 8 -3 4 4 -3 5 0 13 6 15 10 4
10 6 0 6 -7 1 -10 6 -7 11 3 6 1 10 -4 10 -6 0 -11 -9 -11 -19z"/>
<path d="M6610 14221 c0 -5 5 -13 10 -16 6 -3 10 -2 10 4 0 5 -4 13 -10 16 -5
3 -10 2 -10 -4z"/>
<path d="M9040 10846 c0 -2 8 -10 18 -17 15 -13 16 -12 3 4 -13 16 -21 21 -21
13z"/>
<path d="M8910 10756 c0 -2 7 -9 15 -16 9 -7 15 -8 15 -2 0 5 -7 12 -15 16 -8
3 -15 4 -15 2z"/>
<path d="M9110 10710 c-12 -8 -12 -10 3 -16 9 -3 14 -11 10 -17 -3 -5 -1 -7 5
-3 5 3 13 0 15 -6 4 -8 6 -7 6 3 1 9 -6 20 -15 23 -8 3 -12 10 -9 16 8 12 4
12 -15 0z"/>
<path d="M9146 10712 c-3 -5 1 -9 9 -9 8 0 12 4 9 9 -3 4 -7 8 -9 8 -2 0 -6
-4 -9 -8z"/>
<path d="M9355 10541 c-3 -5 -2 -12 3 -15 5 -3 9 1 9 9 0 17 -3 19 -12 6z"/>
<path d="M7998 10633 c7 -3 16 -2 19 1 4 3 -2 6 -13 5 -11 0 -14 -3 -6 -6z"/>
<path d="M6540 9511 c0 -5 5 -13 10 -16 6 -3 10 -2 10 4 0 5 -4 13 -10 16 -5
3 -10 2 -10 -4z"/>
<path d="M9412 8466 l-33 -12 36 -17 c45 -22 45 -22 45 7 0 32 -8 36 -48 22z"/>
<path d="M23735 18060 c-3 -5 -1 -10 4 -10 6 0 11 5 11 10 0 6 -2 10 -4 10 -3
0 -8 -4 -11 -10z"/>
</g>
</svg>
